<?xml version="1.0" encoding="utf-8"?>
<!-- Generator: Adobe Illustrator 21.1.0, SVG Export Plug-In . SVG Version: 6.00 Build 0)  -->
<svg version="1.1"
	 id="Untitled-Page_x25_201" inkscape:version="0.91 r13725" sodipodi:docname="uop-logo--white.svg" xmlns:cc="http://creativecommons.org/ns#" xmlns:dc="http://purl.org/dc/elements/1.1/" xmlns:inkscape="http://www.inkscape.org/namespaces/inkscape" xmlns:rdf="http://www.w3.org/1999/02/22-rdf-syntax-ns#" xmlns:sodipodi="http://sodipodi.sourceforge.net/DTD/sodipodi-0.dtd" xmlns:svg="http://www.w3.org/2000/svg"
	 xmlns="http://www.w3.org/2000/svg" xmlns:xlink="http://www.w3.org/1999/xlink" x="0px" y="0px" viewBox="0 0 107.7 40"
	 style="enable-background:new 0 0 107.7 40;" xml:space="preserve">
<style type="text/css">
	.st0{fill:none;enable-background:new    ;}
	.st1{fill:#FFFFFF;}
</style>
<path class="st0" d="M1.9,2.3"/>
<sodipodi:namedview  bordercolor="#666666" borderopacity="1" gridtolerance="10" guidetolerance="10" id="namedview4325" inkscape:current-layer="title" inkscape:cx="111" inkscape:cy="20" inkscape:pageopacity="0" inkscape:pageshadow="2" inkscape:window-height="710" inkscape:window-maximized="1" inkscape:window-width="1366" inkscape:window-x="0" inkscape:window-y="27" inkscape:zoom="3.2657658" objecttolerance="10" pagecolor="#ffffff" showgrid="false">
	</sodipodi:namedview>
<path class="st0" d="M1.9,2.3"/>
<g>
	<g>
		<path class="st1" d="M38.6,18.6c-1.9,0-3-1.1-3-2.9v-4.5H37v4.4c0,1.1,0.5,1.8,1.6,1.8c1.1,0,1.6-0.7,1.6-1.8v-4.4h1.4v4.5
			C41.6,17.4,40.5,18.6,38.6,18.6z"/>
		<path class="st1" d="M47.4,18.4L44,13.5v4.9h-1.4v-7.2h1.5l3.2,4.9v-4.9h1.4v7.2C48.8,18.4,47.4,18.4,47.4,18.4z"/>
		<path class="st1" d="M50,18.4v-7.2h1.4v7.2H50z"/>
		<path class="st1" d="M56.2,18.4h-1.5l-2.5-7.2h1.5l1.8,5.5l1.8-5.5h1.4L56.2,18.4z"/>
		<path class="st1" d="M59.5,18.4v-7.2h5.4v1.2h-4v1.7h3.5v1.1h-3.5v1.9h4v1.2H59.5z"/>
		<path class="st1" d="M70.3,18.4l-1.2-2.7h-1.7v2.7H66v-7.2h3.2c1.8,0,2.6,1.1,2.6,2.2c0,1-0.5,1.8-1.4,2l1.4,3H70.3z M69.1,12.4
			h-1.8v2.2h1.8c0.8,0,1.2-0.4,1.2-1.1C70.5,12.9,69.9,12.4,69.1,12.4z"/>
		<path class="st1" d="M77.7,17.8c-0.6,0.5-1.5,0.8-2.4,0.8c-0.8,0-1.7-0.2-2.3-0.7c-0.4-0.4-0.8-1-0.8-1.7h1.4
			c0,0.4,0.2,0.7,0.4,0.9c0.4,0.3,0.9,0.4,1.3,0.4c0.5,0,1.1-0.1,1.3-0.4c0.2-0.2,0.3-0.4,0.3-0.7c0-0.5-0.4-0.8-0.9-0.9
			c-0.5-0.1-1.1-0.1-1.7-0.2c-1.1-0.2-1.9-0.8-1.9-2c0-0.5,0.3-1.1,0.7-1.4c0.5-0.4,1.3-0.8,2.2-0.8c0.8,0,1.6,0.3,2.1,0.7
			c0.4,0.4,0.8,1,0.8,1.5h-1.4c0-0.3-0.2-0.5-0.4-0.7c-0.3-0.3-0.8-0.4-1.1-0.4c-0.4,0-1,0.1-1.2,0.4c-0.2,0.2-0.3,0.4-0.3,0.6
			c0,0.4,0.4,0.7,0.8,0.8c0.5,0.1,1.1,0.1,1.7,0.2c1.1,0.2,2.1,0.9,2.1,2.1C78.3,16.9,78.1,17.5,77.7,17.8z"/>
		<path class="st1" d="M79.3,18.4v-7.2h1.4v7.2H79.3z"/>
		<path class="st1" d="M85.3,12.5v6h-1.4v-6h-2.3v-1.2h5.9v1.2C87.4,12.5,85.3,12.5,85.3,12.5z"/>
		<path class="st1" d="M92.2,15.7v2.7h-1.4v-2.7l-2.6-4.5h1.5l1.8,3.1l1.8-3.1h1.4L92.2,15.7z"/>
	</g>
	<g>
		<path class="st1" d="M38.8,25.2h-1.6v2.6h-1.4v-7.2h3c1.8,0,2.7,1,2.7,2.3S40.5,25.2,38.8,25.2z M38.8,21.7h-1.6V24h1.6
			c1,0,1.3-0.4,1.3-1.1S39.7,21.7,38.8,21.7z"/>
		<path class="st1" d="M47.2,27.1c-0.6,0.5-1.4,0.8-2.2,0.8s-1.6-0.3-2.2-0.8c-0.8-0.8-1-1.8-1-2.9c0-1.1,0.2-2.2,1-2.9
			c0.6-0.5,1.4-0.8,2.2-0.8s1.6,0.3,2.2,0.8c0.8,0.8,1,1.8,1,2.9C48.1,25.3,48,26.3,47.2,27.1z M46.2,22c-0.3-0.3-0.8-0.4-1.2-0.4
			s-0.9,0.2-1.2,0.4c-0.5,0.5-0.5,1.4-0.5,2.1s0,1.6,0.5,2.1c0.3,0.3,0.8,0.4,1.2,0.4s0.9-0.2,1.2-0.4c0.5-0.5,0.5-1.4,0.5-2.1
			C46.7,23.5,46.7,22.5,46.2,22z"/>
		<path class="st1" d="M53.3,27.7L52.1,25h-1.7v2.7H49v-7.2h3.2c1.8,0,2.6,1.1,2.6,2.3c0,1-0.5,1.8-1.4,2l1.4,3L53.3,27.7L53.3,27.7
			z M52.2,21.7h-1.8v2.2h1.8c0.8,0,1.2-0.4,1.2-1.1C53.4,22.2,53,21.7,52.2,21.7z"/>
		<path class="st1" d="M58.8,21.8v6h-1.4v-6h-2.3v-1.2H61v1.2H58.8z"/>
		<path class="st1" d="M66.8,27.1c-0.6,0.5-1.5,0.8-2.4,0.8c-0.8,0-1.7-0.2-2.3-0.7c-0.4-0.4-0.8-1-0.8-1.7h1.4
			c0,0.4,0.2,0.7,0.4,0.9c0.4,0.3,0.9,0.4,1.3,0.4c0.5,0,1.1-0.1,1.3-0.4c0.2-0.2,0.3-0.4,0.3-0.7c0-0.5-0.4-0.8-0.9-0.9
			c-0.5-0.1-1.1-0.1-1.7-0.2c-1.2-0.2-2.1-0.9-2.1-2.1c0-0.6,0.3-1.1,0.7-1.4c0.5-0.4,1.3-0.8,2.3-0.8c0.8,0,1.6,0.3,2.1,0.7
			c0.4,0.4,0.8,1,0.8,1.6h-1.5c0-0.3-0.2-0.5-0.4-0.7c-0.3-0.3-0.8-0.4-1.1-0.4c-0.4,0-1,0.1-1.2,0.4c-0.2,0.2-0.3,0.4-0.3,0.6
			c0,0.4,0.4,0.7,0.8,0.8c0.5,0.1,1.1,0.1,1.7,0.2c1.1,0.2,2.1,0.9,2.1,2.1C67.4,26.2,67.1,26.7,66.8,27.1z"/>
		<path class="st1" d="M74.7,27.7v-5.2l-2,5.1h-1.1l-1.9-5.1v5.2h-1.3v-7.2h1.8l2,5.2l2-5.2H76v7.2H74.7z"/>
		<path class="st1" d="M82.2,27.1c-0.6,0.5-1.4,0.8-2.2,0.8s-1.6-0.3-2.2-0.8c-0.8-0.8-1-1.8-1-2.9c0-1.1,0.2-2.2,1-2.9
			c0.6-0.5,1.4-0.8,2.2-0.8s1.6,0.3,2.2,0.8c0.8,0.8,1,1.8,1,2.9C83.2,25.3,83,26.3,82.2,27.1z M81.2,22c-0.3-0.3-0.8-0.4-1.2-0.4
			c-0.4,0-0.9,0.2-1.2,0.4c-0.5,0.5-0.5,1.4-0.5,2.1s0,1.6,0.5,2.1c0.3,0.3,0.8,0.4,1.2,0.4c0.4,0,0.9-0.2,1.2-0.4
			c0.5-0.5,0.5-1.4,0.5-2.1C81.8,23.5,81.8,22.5,81.2,22z"/>
		<path class="st1" d="M87,27.9c-1.9,0-3-1.1-3-2.9v-4.5h1.4V25c0,1.1,0.5,1.8,1.6,1.8c1.1,0,1.6-0.7,1.6-1.8v-4.5H90V25
			C90,26.7,88.9,27.9,87,27.9z"/>
		<path class="st1" d="M94.4,21.8v6H93v-6h-2.3v-1.2h5.9v1.2H94.4z"/>
		<path class="st1" d="M101.8,27.7v-3.2h-3.2v3.2h-1.3v-7.2h1.4v2.8h3.2v-2.8h1.4v7.2H101.8z"/>
	</g>
	<g>
		<path class="st1" d="M98.9,18c-0.4,0.4-1,0.6-1.6,0.6s-1.1-0.2-1.6-0.6c-0.6-0.5-0.7-1.2-0.7-2.1c0-0.9,0.1-1.6,0.7-2.1
			c0.4-0.4,1-0.6,1.6-0.6c0.6,0,1.1,0.2,1.6,0.6c0.6,0.5,0.7,1.2,0.7,2.1C99.6,16.7,99.4,17.4,98.9,18z M98.1,14.3
			C97.9,14,97.6,14,97.2,14s-0.6,0.1-0.9,0.4c-0.4,0.4-0.4,1.1-0.4,1.5c0,0.4,0,1.1,0.4,1.5c0.2,0.3,0.5,0.4,0.9,0.4
			s0.6-0.1,0.9-0.4c0.4-0.4,0.4-1.1,0.4-1.5C98.6,15.4,98.6,14.7,98.1,14.3z"/>
		<path class="st1" d="M101.2,14v1.4h2.5v0.9h-2.5v2.1h-1v-5.3h3.8V14H101.2z"/>
	</g>
</g>
<g>
	<path class="st1" d="M20.9,2.2H2.8v18.1c0,5.1,4,9.1,9.1,9.1V11.3L20.9,2.2z"/>
	<path class="st1" d="M13.1,37.3v-26H21c5,0,9.1,4,9.1,9.1c0,5-4,9.1-9.1,9.1L13.1,37.3z"/>
	<polygon class="st1" points="20.9,4 14.9,10.1 20.9,10.1 	"/>
</g>
</svg>
