<?xml version="1.0" encoding="utf-8"?>
<!-- Generator: Adobe Illustrator 19.2.1, SVG Export Plug-In . SVG Version: 6.00 Build 0)  -->
<svg version="1.1"
	 id="Untitled-Page_x25_201" inkscape:version="0.91 r13725" sodipodi:docname="uop-logo--black.svg" xmlns:cc="http://creativecommons.org/ns#" xmlns:dc="http://purl.org/dc/elements/1.1/" xmlns:inkscape="http://www.inkscape.org/namespaces/inkscape" xmlns:rdf="http://www.w3.org/1999/02/22-rdf-syntax-ns#" xmlns:sodipodi="http://sodipodi.sourceforge.net/DTD/sodipodi-0.dtd" xmlns:svg="http://www.w3.org/2000/svg"
	 xmlns="http://www.w3.org/2000/svg" xmlns:xlink="http://www.w3.org/1999/xlink" x="0px" y="0px" viewBox="0 0 141.8 115.3"
	 style="enable-background:new 0 0 141.8 115.3;" xml:space="preserve">
<sodipodi:namedview  bordercolor="#666666" borderopacity="1" fit-margin-bottom="0" fit-margin-left="0" fit-margin-right="0" fit-margin-top="0" gridtolerance="10" guidetolerance="10" id="namedview4325" inkscape:current-layer="Untitled-Page%201" inkscape:cx="142.40971" inkscape:cy="8.3741087" inkscape:pageopacity="0" inkscape:pageshadow="2" inkscape:window-height="710" inkscape:window-maximized="1" inkscape:window-width="1366" inkscape:window-x="0" inkscape:window-y="27" inkscape:zoom="2.3092451" objecttolerance="10" pagecolor="#ffffff" showgrid="false">
	</sodipodi:namedview>
<g id="circles" transform="translate(-0.4893,-0.0493)">
	<path id="path4272" inkscape:connector-curvature="0" d="M91.8,45.4c12.5,0,22.7-10.2,22.7-22.7C114.5,10.2,104.3,0,91.8,0
		C79.3,0,69.1,10.2,69.1,22.7C69.1,35.3,79.3,45.4,91.8,45.4z"/>
	<path id="path4274" inkscape:connector-curvature="0" d="M41.3,45.4c12.5,0,23.3-10.2,23.3-22.7C64.6,10.2,53.8,0,41.3,0V45.4z"/>
	<path id="path4276" inkscape:connector-curvature="0" d="M41.3,67.8c-6.2,0-10.6-5-10.6-11.2c0-6.2,4.4-11.2,10.6-11.2V67.8z"/>
	<path id="path4278" inkscape:connector-curvature="0" d="M11.4,67.8c-6.2,0-11.2-5-11.2-11.2c0-6.2,5-11.2,11.2-11.2
		c6.2,0,11.2,5,11.2,11.2C22.6,62.8,17.6,67.8,11.4,67.8z"/>
</g>
<g id="title" transform="translate(-0.4893,-0.0493)">
	<g id="g4350">
		<path id="path4281" inkscape:connector-curvature="0" d="M1.5,76.1v10.3c0,2.1,0.4,6.4,5.4,6.4c4.2,0,5.6-2.5,5.6-6.4V76.1h1.1
			v10.3c0,4.1-1.5,7.3-6.7,7.3c-6.1,0-6.4-5-6.4-7.3V76.1C0.5,76.1,1.5,76.1,1.5,76.1z"/>
		<path id="path4283" inkscape:connector-curvature="0" d="M18.3,80.9h0.9v2.6h0c0.6-1.8,2.5-2.9,4.4-2.9c4.3,0,4.4,3.5,4.4,5v7.6
			h-0.9v-7.8c0-1.3-0.1-4-3.5-4c-2.8,0-4.4,2.1-4.4,5.2v6.7h-0.9C18.3,93.2,18.3,80.9,18.3,80.9z"/>
		<path id="path4285" inkscape:connector-curvature="0" d="M33.2,93.2V80.9h0.9v12.3H33.2z M33.2,78.6v-2.5h0.9v2.5H33.2z"/>
		<path id="path4287" inkscape:connector-curvature="0" d="M44,93.2h-1.1l-5-12.3H39l4.5,11.3h0l4.2-11.3h1
			C48.7,80.9,44,93.2,44,93.2z"/>
		<path id="path4289" inkscape:connector-curvature="0" d="M52.8,86.4c0.2-2.4,1.8-5,4.5-5c2.8,0,4.5,2.4,4.5,5H52.8z M62.8,87.2
			c0.2-3.5-1.6-6.6-5.4-6.6c-3.7,0-5.5,3.3-5.4,6.7c0,3.4,1.8,6.2,5.4,6.2c2.9,0,4.8-1.6,5.3-4.5h-0.9c-0.4,2.3-2.1,3.7-4.4,3.7
			c-3,0-4.6-2.6-4.5-5.5H62.8L62.8,87.2z"/>
		<path id="path4291" inkscape:connector-curvature="0" d="M68.6,83.6L68.6,83.6c0.6-1.6,2.6-2.9,4.8-2.8v0.9
			c-1-0.1-2.3,0.1-3.4,1.2c-0.9,0.9-1.3,1.7-1.4,3.6v6.7h-0.9V80.9h0.9C68.6,80.9,68.6,83.6,68.6,83.6z"/>
		<path id="path4293" inkscape:connector-curvature="0" d="M77.4,89.1c0.1,2.3,1.8,3.6,4.1,3.6c1.6,0,3.9-0.5,3.9-2.6
			c0-2.1-2.1-2.4-4.2-2.8c-2.1-0.4-4.2-1-4.2-3.5c0-2.4,2.4-3.2,4.5-3.2c2.6,0,4.6,1.1,4.6,3.9H85c0-2.2-1.6-3.1-3.6-3.1
			c-1.7,0-3.6,0.6-3.6,2.4c0,2,2.1,2.3,4.1,2.7c2.4,0.5,4.4,1,4.4,3.6c0,2.7-2.7,3.4-4.8,3.4c-2.8,0-4.9-1.5-5-4.4H77.4L77.4,89.1z"
			/>
		<path id="path4295" inkscape:connector-curvature="0" d="M91.6,93.2V80.9h0.9v12.3H91.6z M91.6,78.6v-2.5h0.9v2.5H91.6z"/>
		<path id="path4297" inkscape:connector-curvature="0" d="M102.4,81.7h-2.7v8.6c0,2,0.9,2.2,2.7,2.1v0.8c-1.9,0.1-3.7-0.1-3.6-2.9
			v-8.6h-2.3v-0.8h2.3V77h0.9v3.8h2.7V81.7z"/>
		<path id="path4299" inkscape:connector-curvature="0" d="M104.8,80.9h1.1l4.6,11.3l4.2-11.3h1l-5.3,13.7c-0.5,1.2-0.9,2.1-1.4,2.5
			c-0.6,0.5-1.5,0.6-2.9,0.6v-0.8c1.3,0,1.9-0.2,2.6-0.8c0.4-0.4,0.7-1.3,1.3-2.9L104.8,80.9z"/>
		<path id="path4301" inkscape:connector-curvature="0" d="M122.6,87c0-3,1.7-5.7,4.8-5.7c3.1,0,4.8,2.7,4.8,5.7
			c0,3-1.7,5.7-4.8,5.7C124.3,92.7,122.6,90,122.6,87z M121.7,87c0,3.5,2,6.5,5.7,6.5c3.6,0,5.7-3,5.7-6.5s-2-6.5-5.7-6.5
			C123.7,80.6,121.7,83.5,121.7,87z"/>
		<path id="path4303" inkscape:connector-curvature="0" d="M136.3,81.7v-0.8h2.2v-2.5c0-1.7,1.2-2.4,2.7-2.4c0.4,0,0.7,0,1.1,0.1
			v0.8c-0.4-0.1-0.7-0.1-1.1-0.1c-1,0-1.8,0.4-1.8,1.7v2.5h2.6v0.8h-2.6v11.5h-0.9V81.7H136.3L136.3,81.7z"/>
		<path id="path4305" inkscape:connector-curvature="0" d="M5.6,102.6H8c1.3,0,2.4,0.1,2.4,1.6c0,1.7-1.4,1.8-2.7,1.8h-2V102.6z
			 M0.5,115h5.2V110h3.1c3.9,0,6.6-1.9,6.6-6c0-2.4-1.6-5.7-6.2-5.7H0.5C0.5,98.3,0.5,115,0.5,115z"/>
		<path id="path4307" inkscape:connector-curvature="0" d="M24.4,108.9c0,1.3-0.2,3-2,3c-1.8,0-2-1.7-2-3c0-1.3,0.2-3,2-3
			C24.2,105.9,24.4,107.6,24.4,108.9z M29.1,108.9c0-3.4-2.1-6.4-6.7-6.4c-4.6,0-6.7,3-6.7,6.4c0,3.4,2.1,6.4,6.7,6.4
			C27,115.3,29.1,112.3,29.1,108.9z"/>
		<path id="path4309" inkscape:connector-curvature="0" d="M30.7,102.8h4.5v2h0c0.8-1.5,1.7-2.3,3.4-2.3c0.5,0,0.9,0.1,1.4,0.2v4.1
			c-0.5-0.2-0.9-0.3-1.8-0.3c-1.8,0-2.8,1.1-2.8,3.7v4.8h-4.7C30.7,115,30.7,102.8,30.7,102.8z"/>
		<path id="path4311" inkscape:connector-curvature="0" d="M48.6,102.8h2.5v2.9h-2.5v4.3c0,1.1,0.3,1.6,1.4,1.6c0.4,0,0.7,0,1.1-0.1
			v3.5c-0.9,0-2,0.1-3,0.1c-2,0-4.2-0.3-4.2-3.6v-5.8h-2.1v-2.9h2.1v-3.7h4.7C48.6,99.1,48.6,102.8,48.6,102.8z"/>
		<path id="path4313" inkscape:connector-curvature="0" d="M60.8,106.4c0-0.4-0.2-0.7-0.5-0.9c-0.3-0.2-0.7-0.4-1-0.4
			c-0.7,0-1.4,0.1-1.4,0.9c0,0.4,0.3,0.5,0.5,0.6c0.8,0.3,2.5,0.4,4.1,0.9c1.6,0.5,2.9,1.4,2.9,3.4c0,3.4-3.2,4.3-6.2,4.3
			c-2.9,0-6-1.2-6.1-4.3h4.4c0,0.4,0.2,0.8,0.6,1.1c0.2,0.2,0.7,0.4,1.2,0.4c0.6,0,1.6-0.2,1.6-0.9s-0.4-0.9-2.6-1.3
			c-3.5-0.6-5-1.7-5-3.8c0-3.1,3.3-3.9,5.8-3.9c2.6,0,5.8,0.7,5.9,3.9H60.8L60.8,106.4z"/>
		<path id="path4315" inkscape:connector-curvature="0" d="M67.2,102.8h4.5v1.6h0c0.9-1.4,2.3-1.9,4-1.9c1.3,0,2.7,0.7,3.3,1.9
			c0.2-0.1,1.1-1.9,4.2-1.9c3.1,0,4.2,2.2,4.2,4.1v8.4h-4.7v-6.6c0-1.2-0.1-2.2-1.5-2.2c-1.2,0-1.6,0.9-1.6,2.2v6.6h-4.7v-6.6
			c0-1.2-0.1-2.2-1.5-2.2c-1.2,0-1.6,0.9-1.6,2.2v6.6h-4.7C67.2,115,67.2,102.8,67.2,102.8z"/>
		<path id="path4317" inkscape:connector-curvature="0" d="M97.6,108.9c0,1.3-0.2,3-2,3s-2-1.7-2-3c0-1.3,0.2-3,2-3
			S97.6,107.6,97.6,108.9z M102.3,108.9c0-3.4-2.1-6.4-6.7-6.4c-4.6,0-6.7,3-6.7,6.4c0,3.4,2.1,6.4,6.7,6.4
			C100.2,115.3,102.3,112.3,102.3,108.9z"/>
		<path id="path4319" inkscape:connector-curvature="0" d="M116.8,115h-4.5v-1.6h0c-0.9,1.2-2.1,1.9-4,1.9c-2.2,0-4.2-1.3-4.2-4.1
			v-8.4h4.7v6.4c0,1.4,0.2,2.4,1.5,2.4c0.8,0,1.9-0.4,1.9-2.3v-6.4h4.7V115z"/>
		<path id="path4321" inkscape:connector-curvature="0" d="M125.2,102.8h2.5v2.9h-2.5v4.3c0,1.1,0.3,1.6,1.4,1.6
			c0.4,0,0.7,0,1.1-0.1v3.5c-0.9,0-2,0.1-3,0.1c-2,0-4.2-0.3-4.2-3.6v-5.8h-2.1v-2.9h2.1v-3.7h4.7L125.2,102.8L125.2,102.8z"/>
		<path id="path4323" inkscape:connector-curvature="0" d="M129.6,98.3h4.7v5.9h0c0.8-0.9,1.8-1.6,3.8-1.6c2.2,0,4.2,1.3,4.2,4.1
			v8.4h-4.7v-6.4c0-1.4-0.2-2.4-1.5-2.4c-0.8,0-1.9,0.4-1.9,2.4v6.4h-4.7L129.6,98.3L129.6,98.3z"/>
	</g>
</g>
</svg>
