<?xml version="1.0" encoding="UTF-8" standalone="no"?>
<svg
   xmlns:dc="http://purl.org/dc/elements/1.1/"
   xmlns:cc="http://creativecommons.org/ns#"
   xmlns:rdf="http://www.w3.org/1999/02/22-rdf-syntax-ns#"
   xmlns:svg="http://www.w3.org/2000/svg"
   xmlns="http://www.w3.org/2000/svg"
   xmlns:sodipodi="http://sodipodi.sourceforge.net/DTD/sodipodi-0.dtd"
   xmlns:inkscape="http://www.inkscape.org/namespaces/inkscape"
   id="Untitled-Page%201"
   viewBox="0 0 221.06149 39.446301"
   version="1.1"
   xml:space="preserve"
   x="0px"
   y="0px"
   width="221.06149"
   height="39.446301"
   inkscape:version="0.91 r13725"
   sodipodi:docname="uop-logo--black.svg"><metadata
     id="metadata4329"><rdf:RDF><cc:Work
         rdf:about=""><dc:format>image/svg+xml</dc:format><dc:type
           rdf:resource="http://purl.org/dc/dcmitype/StillImage" /><dc:title></dc:title></cc:Work></rdf:RDF></metadata><defs
     id="defs4327" /><sodipodi:namedview
     pagecolor="#ffffff"
     bordercolor="#666666"
     borderopacity="1"
     objecttolerance="10"
     gridtolerance="10"
     guidetolerance="10"
     inkscape:pageopacity="0"
     inkscape:pageshadow="2"
     inkscape:window-width="1366"
     inkscape:window-height="710"
     id="namedview4325"
     showgrid="false"
     inkscape:zoom="2.3092451"
     inkscape:cx="142.40971"
     inkscape:cy="8.3741087"
     inkscape:window-x="0"
     inkscape:window-y="27"
     inkscape:window-maximized="1"
     inkscape:current-layer="Untitled-Page%201"
     fit-margin-top="0"
     fit-margin-left="0"
     fit-margin-right="0"
     fit-margin-bottom="0" /><g
     id="circles"
     style="fill:#000000"
     transform="translate(-0.4893,-0.0493)"><path
       d="m 52.8979,26.2612 c 7.1636,0 12.9712,-5.8076 12.9712,-12.9707 0,-7.164 -5.8076,-12.9707 -12.9712,-12.9707 -7.163,0 -12.9697,5.8067 -12.9697,12.9707 0,7.1631 5.8067,12.9707 12.9697,12.9707 z"
       id="path4272"
       style="fill:#000000;fill-opacity:1"
       inkscape:connector-curvature="0" /><path
       d="m 24,26.2612 c 7.1646,0 13.3086,-5.8076 13.3086,-12.9707 C 37.3086,6.1265 31.1646,0.3198 24,0.3198 l 0,25.9414 z"
       id="path4274"
       style="fill:#000000;fill-opacity:1"
       inkscape:connector-curvature="0" /><path
       d="m 24,39.0688 c -3.5366,0 -6.0669,-2.8671 -6.0669,-6.4042 0,-3.5362 2.5303,-6.4034 6.0669,-6.4034 l 0,12.8076 z"
       id="path4276"
       style="fill:#000000;fill-opacity:1"
       inkscape:connector-curvature="0" /><path
       d="m 6.8936,39.0688 c -3.5372,0 -6.4043,-2.8671 -6.4043,-6.4042 0,-3.5362 2.8671,-6.4034 6.4043,-6.4034 3.5366,0 6.4047,2.8672 6.4047,6.4034 0,3.5371 -2.8681,6.4042 -6.4047,6.4042 z"
       id="path4278"
       style="fill:#000000;fill-opacity:1"
       inkscape:connector-curvature="0" /></g><g
     id="title"
     style="fill:#000000"
     transform="translate(-0.4893,-0.0493)"><g
       id="g4350"
       style="fill:#000000"><path
         style="fill:#000000;fill-opacity:1"
         id="path4281"
         d="m 80.8193,0.2412 0,10.272 c 0,2.0644 0.4322,6.3603 5.376,6.3603 4.2002,0 5.6162,-2.4721 5.6162,-6.3603 l 0,-10.272 1.0562,0 0,10.272 c 0,4.0801 -1.5362,7.2724 -6.6724,7.2724 -6.0957,0 -6.4316,-4.9921 -6.4316,-7.2724 l 0,-10.272 1.0556,0 z"
         inkscape:connector-curvature="0" /><path
         style="fill:#000000;fill-opacity:1"
         id="path4283"
         d="m 97.6196,5.0415 0.9117,0 0,2.6397 0.0483,0 c 0.624,-1.8477 2.4956,-2.9278 4.416,-2.9278 4.3438,0 4.3921,3.48 4.3921,4.9922 l 0,7.6318 -0.9121,0 0,-7.8003 c 0,-1.2719 -0.1441,-4.0317 -3.5044,-4.0317 -2.7598,0 -4.4399,2.1358 -4.4399,5.1602 l 0,6.6718 -0.9117,0 0,-12.3359 z"
         inkscape:connector-curvature="0" /><path
         style="fill:#000000;fill-opacity:1"
         id="path4285"
         d="m 112.4707,17.3774 0,-12.3359 0.9116,0 0,12.3359 -0.9116,0 z m 0,-14.664 0,-2.4722 0.9116,0 0,2.4722 -0.9116,0 z"
         inkscape:connector-curvature="0" /><path
         style="fill:#000000;fill-opacity:1"
         id="path4287"
         d="m 123.3115,17.3774 -1.1284,0 -4.9678,-12.3359 1.0562,0 4.4639,11.2798 0.0478,0 4.1763,-11.2798 1.0078,0 -4.6558,12.3359 z"
         inkscape:connector-curvature="0" /><path
         style="fill:#000000;fill-opacity:1"
         id="path4289"
         d="m 132.0854,10.5376 c 0.1919,-2.4482 1.7999,-4.9922 4.5362,-4.9922 2.832,0 4.4638,2.3999 4.5117,4.9922 l -9.0479,0 z m 9.96,0.792 c 0.168,-3.5283 -1.56,-6.5762 -5.4238,-6.5762 -3.7202,0 -5.4961,3.2881 -5.4483,6.6719 -0.0478,3.4082 1.8482,6.2402 5.4483,6.2402 2.9277,0 4.8476,-1.584 5.3276,-4.4643 l -0.9116,0 c -0.4321,2.2802 -2.0884,3.6723 -4.416,3.6723 -3.0484,0 -4.584,-2.6401 -4.5362,-5.5439 l 9.96,0 z"
         inkscape:connector-curvature="0" /><path
         style="fill:#000000;fill-opacity:1"
         id="path4291"
         d="m 147.8389,7.7773 0.0722,0 c 0.48,-1.6079 2.4956,-2.9038 4.7281,-2.8081 l 0,0.9121 c -0.9605,-0.1201 -2.3042,0.1202 -3.4082,1.2002 -0.9122,0.9361 -1.2959,1.7037 -1.3921,3.5518 l 0,6.7441 -0.9121,0 0,-12.3359 0.9121,0 0,2.7358 z"
         inkscape:connector-curvature="0" /><path
         style="fill:#000000;fill-opacity:1"
         id="path4293"
         d="m 156.6348,13.2734 c 0.144,2.2798 1.8481,3.6001 4.08,3.6001 1.608,0 3.9122,-0.4799 3.9122,-2.6162 0,-2.0879 -2.1119,-2.3999 -4.2242,-2.832 -2.1357,-0.4321 -4.248,-0.9839 -4.248,-3.5039 0,-2.4483 2.376,-3.168 4.4643,-3.168 2.6158,0 4.5601,1.1279 4.5601,3.9361 l -0.9121,0 c -0.0239,-2.232 -1.584,-3.1441 -3.648,-3.1441 -1.6801,0 -3.5522,0.624 -3.5522,2.376 0,1.9678 2.1118,2.2798 4.104,2.7119 2.4482,0.4561 4.3682,1.0322 4.3682,3.624 0,2.6641 -2.6641,3.4082 -4.8243,3.4082 -2.8081,0 -4.9199,-1.5122 -4.9917,-4.3921 l 0.9117,0 z"
         inkscape:connector-curvature="0" /><path
         style="fill:#000000;fill-opacity:1"
         id="path4295"
         d="m 170.8496,17.3774 0,-12.3359 0.9121,0 0,12.3359 -0.9121,0 z m 0,-14.664 0,-2.4722 0.9121,0 0,2.4722 -0.9121,0 z"
         inkscape:connector-curvature="0" /><path
         style="fill:#000000;fill-opacity:1"
         id="path4297"
         d="m 181.6636,5.8335 -2.6875,0 0,8.6157 c 0,1.9922 0.9355,2.1841 2.664,2.1362 l 0,0.792 c -1.872,0.1202 -3.6718,-0.144 -3.5761,-2.9282 l 0,-8.6157 -2.2793,0 0,-0.792 2.2793,0 0,-3.8403 0.9121,0 0,3.8403 2.6875,0 0,0.792 z"
         inkscape:connector-curvature="0" /><path
         style="fill:#000000;fill-opacity:1"
         id="path4299"
         d="m 184.0347,5.0415 1.08,0 4.5845,11.2559 4.2246,-11.2559 1.0313,0 -5.2793,13.6558 c -0.5039,1.2002 -0.9121,2.1362 -1.4395,2.5439 -0.6489,0.5044 -1.4887,0.5523 -2.8813,0.5523 l 0,-0.792 c 1.2969,0 1.9443,-0.168 2.5688,-0.792 0.3594,-0.3599 0.6953,-1.272 1.2715,-2.9038 L 184.0347,5.0415 Z"
         inkscape:connector-curvature="0" /><path
         style="fill:#000000;fill-opacity:1"
         id="path4301"
         d="m 201.8809,11.2095 c 0,-2.9522 1.6562,-5.6641 4.7519,-5.6641 3.0957,0 4.752,2.7119 4.752,5.6641 0,2.9521 -1.6563,5.664 -4.752,5.664 -3.0957,0 -4.7519,-2.7119 -4.7519,-5.664 z m -0.9121,0 c 0,3.5039 2.041,6.456 5.664,6.456 3.625,0 5.6641,-2.9521 5.6641,-6.456 0,-3.5039 -2.0391,-6.4561 -5.6641,-6.4561 -3.623,0 -5.664,2.9522 -5.664,6.4561 z"
         inkscape:connector-curvature="0" /><path
         style="fill:#000000;fill-opacity:1"
         id="path4303"
         d="m 215.5508,5.8335 0,-0.792 2.209,0 0,-2.5439 c 0,-1.7281 1.2226,-2.4483 2.7109,-2.4483 0.3613,0 0.7207,0.0479 1.0801,0.1201 l 0,0.792 c -0.3594,-0.0722 -0.7188,-0.1201 -1.0801,-0.1201 -1.0078,0 -1.7988,0.3599 -1.7988,1.728 l 0,2.4722 2.5664,0 0,0.792 -2.5664,0 0,11.5439 -0.9121,0 0,-11.5439 -2.209,0 z"
         inkscape:connector-curvature="0" /><path
         style="fill:#000000;fill-opacity:1"
         id="path4305"
         d="m 84.9214,26.7114 2.3032,0 c 1.2691,0 2.4439,0.0943 2.4439,1.6216 0,1.6919 -1.4097,1.7861 -2.7496,1.7861 l -1.9975,0 0,-3.4077 z m -5.1699,12.4785 5.1699,0 0,-5.0761 3.0552,0 c 3.854,0 6.58,-1.9034 6.58,-5.9688 0,-2.397 -1.5981,-5.7339 -6.1572,-5.7339 l -8.6479,0 0,16.7788 z"
         inkscape:connector-curvature="0" /><path
         style="fill:#000000;fill-opacity:1"
         id="path4307"
         d="m 103.6743,33.0801 c 0,1.2925 -0.2348,3.0312 -1.9975,3.0312 -1.7622,0 -1.9971,-1.7387 -1.9971,-3.0312 0,-1.2925 0.2349,-3.0083 1.9971,-3.0083 1.7627,0 1.9975,1.7158 1.9975,3.0083 z m 4.6533,0 c 0,-3.3843 -2.0683,-6.3921 -6.6508,-6.3921 -4.5826,0 -6.6504,3.0078 -6.6504,6.3921 0,3.3838 2.0678,6.4155 6.6504,6.4155 4.5825,0 6.6508,-3.0317 6.6508,-6.4155 z"
         inkscape:connector-curvature="0" /><path
         style="fill:#000000;fill-opacity:1"
         id="path4309"
         d="m 109.9946,26.9937 4.4649,0 0,1.9501 0.0468,0 c 0.752,-1.457 1.7393,-2.2558 3.4312,-2.2558 0.4702,0 0.9165,0.0703 1.3628,0.188 l 0,4.1123 c -0.4697,-0.1646 -0.8926,-0.3052 -1.833,-0.3052 -1.833,0 -2.8198,1.0811 -2.8198,3.6895 l 0,4.8173 -4.6529,0 0,-12.1962 z"
         inkscape:connector-curvature="0" /><path
         style="fill:#000000;fill-opacity:1"
         id="path4311"
         d="m 127.854,26.9937 2.4912,0 0,2.8667 -2.4912,0 0,4.2534 c 0,1.1284 0.2588,1.6216 1.4336,1.6216 0.3525,0 0.7051,-0.0235 1.0576,-0.0704 l 0,3.5249 c -0.9399,0 -1.9975,0.1412 -2.9844,0.1412 -1.9741,0 -4.1596,-0.3057 -4.1596,-3.6426 l 0,-5.8281 -2.0679,0 0,-2.8667 2.0679,0 0,-3.7134 4.6528,0 0,3.7134 z"
         inkscape:connector-curvature="0" /><path
         style="fill:#000000;fill-opacity:1"
         id="path4313"
         d="m 140.0522,30.542 c -0.0234,-0.3994 -0.2348,-0.7051 -0.5405,-0.9165 -0.2817,-0.2349 -0.6577,-0.3526 -1.0337,-0.3526 -0.6582,0 -1.4101,0.1412 -1.4101,0.94 0,0.3525 0.2822,0.5171 0.5405,0.6348 0.7754,0.3286 2.5381,0.4228 4.0889,0.9399 1.5512,0.4932 2.914,1.4097 2.914,3.4072 0,3.3843 -3.2426,4.3008 -6.2041,4.3008 -2.8667,0 -6.0156,-1.1518 -6.0864,-4.3008 l 4.4414,0 c 0.0239,0.4234 0.2119,0.7754 0.5645,1.0811 0.2348,0.2114 0.6811,0.3525 1.2451,0.3525 0.6113,0 1.5747,-0.2348 1.5747,-0.9399 0,-0.7051 -0.3994,-0.9165 -2.5615,-1.2925 -3.5484,-0.6108 -4.982,-1.7393 -4.982,-3.8306 0,-3.0786 3.3135,-3.8774 5.7574,-3.8774 2.6318,0 5.8046,0.7285 5.9218,3.854 l -4.23,0 z"
         inkscape:connector-curvature="0" /><path
         style="fill:#000000;fill-opacity:1"
         id="path4315"
         d="m 146.4443,26.9937 4.4883,0 0,1.621 0.0469,0 c 0.9399,-1.4096 2.3032,-1.9267 3.9951,-1.9267 1.3159,0 2.7261,0.6816 3.29,1.9033 0.188,-0.1406 1.128,-1.9033 4.1597,-1.9033 3.1255,0 4.1826,2.1621 4.1826,4.1357 l 0,8.3662 -4.6528,0 0,-6.6035 c 0,-1.1513 -0.1177,-2.1855 -1.5273,-2.1855 -1.1753,0 -1.5747,0.9165 -1.5747,2.1855 l 0,6.6035 -4.6529,0 0,-6.6035 c 0,-1.1513 -0.1177,-2.1855 -1.5273,-2.1855 -1.1753,0 -1.5747,0.9165 -1.5747,2.1855 l 0,6.6035 -4.6529,0 0,-12.1962 z"
         inkscape:connector-curvature="0" /><path
         style="fill:#000000;fill-opacity:1"
         id="path4317"
         d="m 176.8745,33.0801 c 0,1.2925 -0.2344,3.0312 -1.9971,3.0312 -1.7627,0 -1.9975,-1.7387 -1.9975,-3.0312 0,-1.2925 0.2348,-3.0083 1.9975,-3.0083 1.7627,0 1.9971,1.7158 1.9971,3.0083 z m 4.6533,0 c 0,-3.3843 -2.0674,-6.3921 -6.6504,-6.3921 -4.5825,0 -6.6503,3.0078 -6.6503,6.3921 0,3.3838 2.0678,6.4155 6.6503,6.4155 4.583,0 6.6504,-3.0317 6.6504,-6.4155 z"
         inkscape:connector-curvature="0" /><path
         style="fill:#000000;fill-opacity:1"
         id="path4319"
         d="m 196.0254,39.1899 -4.4883,0 0,-1.5507 -0.0469,0 c -0.8691,1.2216 -2.1152,1.8564 -3.9712,1.8564 -2.1855,0 -4.1836,-1.3398 -4.1836,-4.1362 l 0,-8.3657 4.6529,0 0,6.3916 c 0,1.4101 0.166,2.3969 1.5273,2.3969 0.7989,0 1.8574,-0.3994 1.8574,-2.3496 l 0,-6.4389 4.6524,0 0,12.1962 z"
         inkscape:connector-curvature="0" /><path
         style="fill:#000000;fill-opacity:1"
         id="path4321"
         d="m 204.5098,26.9937 2.4922,0 0,2.8667 -2.4922,0 0,4.2534 c 0,1.1284 0.2597,1.6216 1.4336,1.6216 0.3535,0 0.705,-0.0235 1.0586,-0.0704 l 0,3.5249 c -0.9415,0 -1.9981,0.1412 -2.9844,0.1412 -1.9746,0 -4.1602,-0.3057 -4.1602,-3.6426 l 0,-5.8281 -2.0683,0 0,-2.8667 2.0683,0 0,-3.7134 4.6524,0 0,3.7134 z"
         inkscape:connector-curvature="0" /><path
         style="fill:#000000;fill-opacity:1"
         id="path4323"
         d="m 208.8359,22.4111 4.6524,0 0,5.8985 0.0469,0 c 0.7988,-0.94 1.8339,-1.6216 3.8066,-1.6216 2.1855,0 4.1836,1.3393 4.1836,4.1357 l 0,8.3662 -4.6524,0 0,-6.392 c 0,-1.4102 -0.164,-2.397 -1.5273,-2.397 -0.7988,0 -1.8574,0.3994 -1.8574,2.3501 l 0,6.4389 -4.6524,0 0,-16.7788 z"
         inkscape:connector-curvature="0" /></g></g></svg>