<?xml version="1.0" encoding="UTF-8" standalone="no"?>
<!-- Generated by IcoMoon.io -->

<svg
   xmlns:dc="http://purl.org/dc/elements/1.1/"
   xmlns:cc="http://creativecommons.org/ns#"
   xmlns:rdf="http://www.w3.org/1999/02/22-rdf-syntax-ns#"
   xmlns:svg="http://www.w3.org/2000/svg"
   xmlns="http://www.w3.org/2000/svg"
   xmlns:sodipodi="http://sodipodi.sourceforge.net/DTD/sodipodi-0.dtd"
   xmlns:inkscape="http://www.inkscape.org/namespaces/inkscape"
   version="1.1"
   width="18"
   height="16"
   viewBox="0 0 18 16"
   id="svg2"
   inkscape:version="0.91 r13725"
   sodipodi:docname="books.svg">
  <metadata
     id="metadata16">
    <rdf:RDF>
      <cc:Work
         rdf:about="">
        <dc:format>image/svg+xml</dc:format>
        <dc:type
           rdf:resource="http://purl.org/dc/dcmitype/StillImage" />
        <dc:title></dc:title>
      </cc:Work>
    </rdf:RDF>
  </metadata>
  <defs
     id="defs14" />
  <sodipodi:namedview
     pagecolor="#ffffff"
     bordercolor="#666666"
     borderopacity="1"
     objecttolerance="10"
     gridtolerance="10"
     guidetolerance="10"
     inkscape:pageopacity="0"
     inkscape:pageshadow="2"
     inkscape:window-width="1227"
     inkscape:window-height="549"
     id="namedview12"
     showgrid="false"
     inkscape:zoom="7.375"
     inkscape:cx="5.2026316"
     inkscape:cy="16.079429"
     inkscape:window-x="0"
     inkscape:window-y="27"
     inkscape:window-maximized="0"
     inkscape:current-layer="svg2" />
  <path
     fill="#000000"
     d="M3.5 2h-3c-0.275 0-0.5 0.225-0.5 0.5v11c0 0.275 0.225 0.5 0.5 0.5h3c0.275 0 0.5-0.225 0.5-0.5v-11c0-0.275-0.225-0.5-0.5-0.5zM3 5h-2v-1h2v1z"
     id="path4"
     style="fill:#ffffff" />
  <path
     fill="#000000"
     d="M8.5 2h-3c-0.275 0-0.5 0.225-0.5 0.5v11c0 0.275 0.225 0.5 0.5 0.5h3c0.275 0 0.5-0.225 0.5-0.5v-11c0-0.275-0.225-0.5-0.5-0.5zM8 5h-2v-1h2v1z"
     id="path6"
     style="fill:#ffffff" />
  <path
     fill="#000000"
     d="M11.954 2.773l-2.679 1.35c-0.246 0.124-0.345 0.426-0.222 0.671l4.5 8.93c0.124 0.246 0.426 0.345 0.671 0.222l2.679-1.35c0.246-0.124 0.345-0.426 0.222-0.671l-4.5-8.93c-0.124-0.246-0.426-0.345-0.671-0.222z"
     id="path8"
     style="fill:#ffffff" />
  <path
     fill="#000000"
     d="M14.5 13.5c0 0.276-0.224 0.5-0.5 0.5s-0.5-0.224-0.5-0.5c0-0.276 0.224-0.5 0.5-0.5s0.5 0.224 0.5 0.5z"
     id="path10"
     style="fill:#ffffff" />
</svg>
