<?xml version="1.0" encoding="UTF-8" standalone="no"?>
<!-- Generated by IcoMoon.io -->

<svg
   xmlns:dc="http://purl.org/dc/elements/1.1/"
   xmlns:cc="http://creativecommons.org/ns#"
   xmlns:rdf="http://www.w3.org/1999/02/22-rdf-syntax-ns#"
   xmlns:svg="http://www.w3.org/2000/svg"
   xmlns="http://www.w3.org/2000/svg"
   xmlns:sodipodi="http://sodipodi.sourceforge.net/DTD/sodipodi-0.dtd"
   xmlns:inkscape="http://www.inkscape.org/namespaces/inkscape"
   version="1.1"
   width="16"
   height="16"
   viewBox="0 0 16 16"
   id="svg62"
   inkscape:version="0.91 r13725"
   sodipodi:docname="files-empty.svg">
  <metadata
     id="metadata72">
    <rdf:RDF>
      <cc:Work
         rdf:about="">
        <dc:format>image/svg+xml</dc:format>
        <dc:type
           rdf:resource="http://purl.org/dc/dcmitype/StillImage" />
      </cc:Work>
    </rdf:RDF>
  </metadata>
  <defs
     id="defs70" />
  <sodipodi:namedview
     pagecolor="#ffffff"
     bordercolor="#666666"
     borderopacity="1"
     objecttolerance="10"
     gridtolerance="10"
     guidetolerance="10"
     inkscape:pageopacity="0"
     inkscape:pageshadow="2"
     inkscape:window-width="640"
     inkscape:window-height="480"
     id="namedview68"
     showgrid="false"
     inkscape:zoom="14.75"
     inkscape:cx="8"
     inkscape:cy="8"
     inkscape:window-x="0"
     inkscape:window-y="27"
     inkscape:window-maximized="0"
     inkscape:current-layer="svg62" />
  <path
     fill="#000000"
     d="M14.341 5.579c-0.347-0.473-0.831-1.027-1.362-1.558s-1.085-1.015-1.558-1.362c-0.806-0.591-1.197-0.659-1.421-0.659h-5.75c-0.689 0-1.25 0.561-1.25 1.25v11.5c0 0.689 0.561 1.25 1.25 1.25h9.5c0.689 0 1.25-0.561 1.25-1.25v-7.75c0-0.224-0.068-0.615-0.659-1.421zM12.271 4.729c0.48 0.48 0.856 0.912 1.134 1.271h-2.406v-2.405c0.359 0.278 0.792 0.654 1.271 1.134v0zM14 14.75c0 0.136-0.114 0.25-0.25 0.25h-9.5c-0.136 0-0.25-0.114-0.25-0.25v-11.5c0-0.135 0.114-0.25 0.25-0.25 0 0 5.749-0 5.75 0v3.5c0 0.276 0.224 0.5 0.5 0.5h3.5v7.75z"
     id="path64"
     style="fill:#ffffff" />
  <path
     fill="#000000"
     d="M9.421 0.659c-0.806-0.591-1.197-0.659-1.421-0.659h-5.75c-0.689 0-1.25 0.561-1.25 1.25v11.5c0 0.604 0.43 1.109 1 1.225v-12.725c0-0.135 0.115-0.25 0.25-0.25h7.607c-0.151-0.124-0.297-0.238-0.437-0.341z"
     id="path66"
     style="fill:#ffffff" />
</svg>
