<?xml version="1.0" encoding="UTF-8" standalone="no"?>
<!-- Generated by IcoMoon.io -->

<svg
   xmlns:dc="http://purl.org/dc/elements/1.1/"
   xmlns:cc="http://creativecommons.org/ns#"
   xmlns:rdf="http://www.w3.org/1999/02/22-rdf-syntax-ns#"
   xmlns:svg="http://www.w3.org/2000/svg"
   xmlns="http://www.w3.org/2000/svg"
   xmlns:sodipodi="http://sodipodi.sourceforge.net/DTD/sodipodi-0.dtd"
   xmlns:inkscape="http://www.inkscape.org/namespaces/inkscape"
   version="1.1"
   width="16"
   height="16"
   viewBox="0 0 16 16"
   id="svg99"
   inkscape:version="0.91 r13725"
   sodipodi:docname="stack.svg">
  <metadata
     id="metadata107">
    <rdf:RDF>
      <cc:Work
         rdf:about="">
        <dc:format>image/svg+xml</dc:format>
        <dc:type
           rdf:resource="http://purl.org/dc/dcmitype/StillImage" />
      </cc:Work>
    </rdf:RDF>
  </metadata>
  <defs
     id="defs105" />
  <sodipodi:namedview
     pagecolor="#ffffff"
     bordercolor="#666666"
     borderopacity="1"
     objecttolerance="10"
     gridtolerance="10"
     guidetolerance="10"
     inkscape:pageopacity="0"
     inkscape:pageshadow="2"
     inkscape:window-width="640"
     inkscape:window-height="480"
     id="namedview103"
     showgrid="false"
     inkscape:zoom="14.75"
     inkscape:cx="8"
     inkscape:cy="8"
     inkscape:window-x="0"
     inkscape:window-y="27"
     inkscape:window-maximized="0"
     inkscape:current-layer="svg99" />
  <path
     fill="#000000"
     d="M13.75 4h-0.75v-0.75c0-0.689-0.561-1.25-1.25-1.25h-0.75v-0.75c0-0.689-0.561-1.25-1.25-1.25h-7.5c-0.689 0-1.25 0.561-1.25 1.25v9.5c0 0.689 0.561 1.25 1.25 1.25h0.75v0.75c0 0.689 0.561 1.25 1.25 1.25h0.75v0.75c0 0.689 0.561 1.25 1.25 1.25h7.5c0.689 0 1.25-0.561 1.25-1.25v-9.5c0-0.689-0.561-1.25-1.25-1.25zM2.25 11c-0.138 0-0.25-0.113-0.25-0.25v-9.5c0-0.137 0.112-0.25 0.25-0.25h7.5c0.137 0 0.25 0.113 0.25 0.25v0.75h-5.75c-0.689 0-1.25 0.561-1.25 1.25v7.75h-0.75zM4.25 13c-0.138 0-0.25-0.113-0.25-0.25v-9.5c0-0.138 0.112-0.25 0.25-0.25h7.5c0.137 0 0.25 0.112 0.25 0.25v0.75h-5.75c-0.689 0-1.25 0.561-1.25 1.25v7.75h-0.75zM14 14.75c0 0.137-0.113 0.25-0.25 0.25h-7.5c-0.138 0-0.25-0.113-0.25-0.25v-9.5c0-0.138 0.112-0.25 0.25-0.25h7.5c0.137 0 0.25 0.112 0.25 0.25v9.5z"
     id="path101"
     style="fill:#ffffff" />
</svg>
