<?xml version="1.0" encoding="utf-8"?>
<!-- Generator: Adobe Illustrator 20.0.0, SVG Export Plug-In . SVG Version: 6.00 Build 0)  -->
<svg version="1.1" id="Layer_1" xmlns="http://www.w3.org/2000/svg" xmlns:xlink="http://www.w3.org/1999/xlink" x="0px" y="0px"
	 viewBox="0 0 255.7 265.1" style="enable-background:new 0 0 255.7 265.1;" xml:space="preserve">
<style type="text/css">
	.st0{clip-path:url(#SVGID_2_);}
	.st1{clip-path:url(#SVGID_4_);}
	.st2{clip-path:url(#SVGID_6_);fill:#BCBCBC;}
	.st3{clip-path:url(#SVGID_6_);fill:#404040;}
	.st4{clip-path:url(#SVGID_6_);fill:#BDBDBD;}
	.st5{clip-path:url(#SVGID_6_);fill:none;stroke:#9E9E9E;stroke-width:2.783;stroke-miterlimit:10;}
	
		.st6{clip-path:url(#SVGID_6_);fill:none;stroke:#9E9E9E;stroke-width:2.783;stroke-linecap:round;stroke-linejoin:round;stroke-miterlimit:10;}
	
		.st7{clip-path:url(#SVGID_6_);fill:none;stroke:#9E9E9E;stroke-width:5.566;stroke-linecap:round;stroke-linejoin:round;stroke-miterlimit:10;}
	.st8{clip-path:url(#SVGID_6_);fill:#3E3E3E;}
	.st9{clip-path:url(#SVGID_6_);fill:#D0D0D0;}
	.st10{clip-path:url(#SVGID_6_);fill:#EFEFEF;}
	.st11{clip-path:url(#SVGID_6_);fill:#575757;}
	.st12{clip-path:url(#SVGID_6_);fill:#949494;}
	.st13{clip-path:url(#SVGID_6_);fill:#929292;}
	.st14{clip-path:url(#SVGID_6_);fill:#E5E5E5;}
	.st15{clip-path:url(#SVGID_6_);fill:#7F7F7F;}
	.st16{clip-path:url(#SVGID_6_);fill:#A8A8A8;}
	.st17{clip-path:url(#SVGID_6_);fill:#A7A7A7;}
	.st18{clip-path:url(#SVGID_6_);fill:#E7E7E7;}
	.st19{clip-path:url(#SVGID_6_);fill:#6C6C6C;}
	.st20{clip-path:url(#SVGID_6_);fill:#818181;}
	.st21{clip-path:url(#SVGID_6_);fill:#D2D2D2;}
	.st22{clip-path:url(#SVGID_6_);fill:#C9C9C9;}
	.st23{clip-path:url(#SVGID_6_);fill:#F1F1F1;}
	.st24{clip-path:url(#SVGID_6_);fill:#515151;}
	.st25{clip-path:url(#SVGID_6_);fill:#595959;}
	.st26{clip-path:url(#SVGID_6_);fill:#6E6E6E;}
	.st27{clip-path:url(#SVGID_6_);fill:#FFFFFF;}
</style>
<g>
	<defs>
		<rect id="SVGID_1_" x="-8.8" y="-5.3" width="280.4" height="270.4"/>
	</defs>
	<clipPath id="SVGID_2_">
		<use xlink:href="#SVGID_1_"  style="overflow:visible;"/>
	</clipPath>
	<g class="st0">
		<defs>
			<polygon id="SVGID_3_" points="-3.7,308 255.8,325 255.8,10.3 16.8,-5.3 			"/>
		</defs>
		<clipPath id="SVGID_4_">
			<use xlink:href="#SVGID_3_"  style="overflow:visible;"/>
		</clipPath>
		<g class="st1">
			<defs>
				<rect id="SVGID_5_" x="-35.4" y="-44.6" width="291.1" height="411.7"/>
			</defs>
			<clipPath id="SVGID_6_">
				<use xlink:href="#SVGID_5_"  style="overflow:visible;"/>
			</clipPath>
			<path class="st2" d="M96.4,286.9l2.2-32.9c0,0,0.3-5,7.3-6.1c0.2-0.1,11.4-2.1,22.9,0.7c0.1,0,6.1,2,6.1,6.6
				c0.1,0.1-2.2,34-2.2,34L96.4,286.9z"/>
			<path class="st3" d="M161,21.5c0,0,0.1-0.1-0.1-0.3c0,0,0.4-0.6,0.4-0.6s-0.2-0.7-0.2-1c0,0-0.1,0-0.2,0l-1.8-5.9
				c0.2-0.2,0.5-0.3,0.5-0.3s1.3-0.7,1.8-1c0,0,0,0,0,0l0,0c0.1-0.1,0.2-0.1,0.2-0.1c0.1-0.3-0.2-0.1-0.3-0.1c0,0-0.1,0.1-0.1,0.1
				c-1-0.1-2.2-0.7-2.7-1l0-0.2c0,0,0.1-0.1,0.1-0.1c0-0.1-0.1-0.3-0.3-0.3c-0.2,0-0.4,0.1-0.4,0.2c0,0.1,0,0.1,0.1,0.2l0,0.1
				c-1.4-0.3-2.5-1.1-3.5-1.8l1.1-0.7c0,0-0.1-0.2-0.1-0.2c-0.2,0.1-0.6,0.3-1.2,0.7c-1-0.9-1.7-1.8-2-2.1l0.4-3.3
				c0,0-0.1-0.1-0.3,0l-0.3,2.6c0,0.2-0.1,0.3-0.2,0.6c-0.3,0.5-0.9,1.5-1.7,2.7c-1.8,0.9-3.5,1.4-4.3,1.6c0,0,0.1-0.1,0.1-0.1
				c0-0.1-0.1-0.3-0.3-0.3c-0.2,0-0.4,0.1-0.4,0.2c0,0.1,0,0.1,0.1,0.2l0,0.3l0.1,0c0,0,0,0,0,0.1c0,0,0,0,0,0
				c-2.3,2-8.7,5.8-9.6,6.3l-0.2-0.1c-0.2,0.1-0.2,0.3-0.2,0.3l0.4,0.2c0.2,0.8,1.1,3.6,1.3,5.3l0,0l0,0c0,0,2.1,0.6,4.1,1.3
				c-0.5,0.5-1,1.3-0.4,2.3c0.1,0,2.1,2.9,6.1,3.3c0,0,0.9,0.1,2.2,0.1l-0.2,1.1c-0.2,0.1-0.4,0.3-0.4,0.5l0,0.4
				c0,0.2,0.1,0.4,0.2,0.6l-0.5,3.6l0.8,0.1l0.4-3.6c0.2-0.1,0.3-0.3,0.3-0.5l0-0.4c0-0.2-0.1-0.4-0.2-0.6l0.1-1.2
				c1.3,0,2.8-0.2,4.2-0.5c0,0,3.3-0.8,4.9-1c0,0,0-0.3,0-0.3l0.2,0c0,0,0.7,0.5,1.3-0.2c0,0,0.3-0.5-0.3-1.1c0,0-0.3-0.5,0.1-0.7
				c0,0-0.4-0.1-0.3-0.3c0,0-0.5,0-0.1-0.2c0,0,0.2,0-0.1-0.4c0,0-0.2-0.7,0-1c0,0-0.1-0.1-0.1-0.1s0.3-0.9,0.5-1.1
				c0,0,0.1-0.1,0.2-0.1c0,0,0.3,0,0.3-0.2c0,0,0.1-0.3,0.3-0.5c0,0,0.2-0.3,0.1-0.5C161.1,22.1,161,21.6,161,21.5 M158.9,13.3
				L158.9,13.3l-0.4-1.4c0.6,0.2,1.3,0.4,2,0.5C160.2,12.7,159.6,13,158.9,13.3 M158.5,11.3c0.5,0.2,1.6,0.8,2.5,1
				c-0.1,0-0.2,0-0.2,0c0,0-0.1,0-0.1,0c-0.8-0.2-1.5-0.3-2.2-0.6l-0.1-0.4C158.5,11.4,158.5,11.4,158.5,11.3
				C158.5,11.4,158.5,11.3,158.5,11.3 M158.4,11.9C158.4,11.9,158.4,11.9,158.4,11.9l0.5,1.4l0,0.1c-0.2,0.1-0.4,0.2-0.7,0.4
				L158.4,11.9z M158,16c0,0.4,0.1,0.9,0.1,1.4c-0.1-0.1-0.2-0.2-0.2-0.3L158,16z M157.9,17.3c0.1,0.1,0.2,0.3,0.3,0.4
				c0.1,0.4,0.1,0.9,0.2,1.4c-0.2-0.1-0.4-0.2-0.6-0.4L157.9,17.3z M157.7,18.8c0.2,0.1,0.5,0.3,0.7,0.4c0,0.2,0.1,0.3,0.1,0.5
				c-0.3-0.1-0.6-0.3-0.8-0.5L157.7,18.8z M154.4,9.3c1,0.8,2.2,1.6,3.6,1.9l0,0.1c-0.1,0.1-0.2,0.1-0.3,0.2c-1.5-0.6-2.6-1.3-3.4-2
				c-0.1,0-0.1-0.1-0.2-0.1L154.4,9.3z M155.4,14.2c-0.4-0.8-0.4-1.7-0.3-2c0.6-0.3,1-0.5,1-0.5c0-0.3-0.2-0.3-0.2-0.3l-1.3,0.7
				c-1-1.4-0.6-2.5-0.6-2.5l0,0c0.1,0.1,0.1,0.1,0.2,0.2c0.8,0.6,1.9,1.3,3.4,1.9C157,12.1,156.1,13,155.4,14.2 M155.3,14.4
				c0.1,0.3,0.3,0.5,0.6,0.7c-0.5,0.3-0.9,0.5-1.2,0.7C154.9,15.3,155.1,14.8,155.3,14.4 M152.3,7.1c0.3,0.4,0.9,1.2,1.9,2
				c-0.1,0-0.2,0.1-0.3,0.2c-0.9-0.7-1.4-1.4-1.6-1.6L152.3,7.1z M152.2,7.8c0.3,0.3,0.8,0.9,1.6,1.5c-0.6,0.3-1.2,0.6-1.8,0.9
				L152.2,7.8z M151.6,13.2c1-0.4,1.8-0.7,2.4-0.9l-2.4,1.3c0-0.1,0-0.1-0.1-0.2L151.6,13.2z M151.5,14c0,0,0.1,0,0.1-0.1
				c0.2,0.9,0.6,2.3,1.2,3.8c-0.1,0-0.2,0.1-0.3,0.1C152.1,16.4,151.8,15.1,151.5,14L151.5,14z M150.7,13.6c0.1,0,0.1-0.1,0.2-0.1
				c0,0.1,0,0.3,0,0.4l-0.1,0.1C150.8,13.9,150.8,13.7,150.7,13.6 M150.7,14.1l-2.1,1.1c0-0.1,0-0.1,0-0.2c0.6-0.5,1.3-0.9,2-1.3
				C150.7,13.8,150.7,13.9,150.7,14.1 M149.7,11.3c0.5-0.7,1-1.5,1.3-2.2c0.2-0.1,0.5-0.3,0.7-0.5l-0.2,1.8
				C150.9,10.8,150.3,11.1,149.7,11.3 M151.2,17c0.1,1.3,0.2,2.8,0.2,4.2c-0.2-0.2-0.4-0.5-0.6-0.7L151.2,17z M151.8,19
				c0,0.2,0.1,0.5,0.1,0.7c-0.2,0-0.4,0-0.5,0c0-0.2,0-0.5,0-0.7C151.5,19,151.7,19,151.8,19 M151.4,18.9c0-0.2,0-0.5,0-0.7
				c0.1,0,0.1,0,0.3,0c0,0.2,0.1,0.5,0.1,0.7C151.6,18.9,151.5,18.9,151.4,18.9 M151.9,19c0.1,0,0.3,0,0.4,0
				c0.1,0.2,0.1,0.5,0.2,0.7c-0.2,0-0.3,0-0.5,0C152,19.5,152,19.3,151.9,19 M152.6,19.8c0,0.2,0.1,0.4,0.1,0.7c-0.2,0-0.4,0-0.5,0
				c0-0.2-0.1-0.4-0.1-0.7C152.2,19.9,152.4,19.9,152.6,19.8 M152.7,19.8c0.1,0,0.3,0,0.4-0.1c0.1,0.2,0.2,0.4,0.2,0.6
				c-0.2,0-0.3,0.1-0.5,0.1C152.8,20.3,152.7,20,152.7,19.8 M152.6,19.7c-0.1-0.2-0.1-0.5-0.2-0.7c0.1,0,0.2,0,0.3-0.1
				c0.1,0.2,0.2,0.5,0.2,0.7C152.9,19.7,152.8,19.7,152.6,19.7 M152.5,18.9c-0.1-0.3-0.1-0.5-0.2-0.8c0.1,0,0.1,0,0.2-0.1
				c0.1,0.3,0.2,0.5,0.2,0.8C152.6,18.8,152.6,18.9,152.5,18.9 M152.4,18.9c-0.2,0-0.3,0-0.4,0c0-0.2-0.1-0.5-0.1-0.7
				c0.1,0,0.3,0,0.4-0.1C152.2,18.4,152.3,18.6,152.4,18.9 M151.8,18.1c-0.1-0.7-0.3-1.4-0.4-2.1l0.1-1.1c0.2,0.9,0.5,2,0.7,3.1
				C152,18,151.9,18.1,151.8,18.1 M151.6,18.1c-0.1,0-0.2,0-0.3,0c0-0.6-0.1-1.2-0.1-1.7l0-0.1C151.4,16.9,151.5,17.5,151.6,18.1
				 M151.5,19.9c0.1,0,0.3,0,0.5,0c0,0.2,0.1,0.4,0.1,0.6c-0.3,0-0.5,0-0.6,0C151.5,20.3,151.5,20.1,151.5,19.9 M151.6,20.6
				c0.1,0,0.3,0,0.4,0c0,0.2,0.1,0.4,0.1,0.6c-0.3,0-0.5,0-0.6,0c0-0.2,0-0.4,0-0.6C151.5,20.6,151.6,20.6,151.6,20.6 M152.2,20.6
				c0.2,0,0.3,0,0.5,0c0,0.2,0.1,0.4,0.1,0.6c-0.2,0-0.4,0-0.6,0C152.3,21,152.2,20.8,152.2,20.6 M152.8,20.6c0.2,0,0.3-0.1,0.5-0.1
				c0.1,0.2,0.2,0.4,0.2,0.6c-0.2,0.1-0.4,0.1-0.6,0.1C152.9,21,152.9,20.8,152.8,20.6 M153.4,20.5c0.2,0,0.3-0.1,0.5-0.2
				c0.1,0.2,0.2,0.4,0.3,0.5c-0.2,0.1-0.3,0.2-0.5,0.2C153.6,20.9,153.5,20.7,153.4,20.5 M153.4,20.4c-0.1-0.2-0.2-0.4-0.2-0.6
				c0.1,0,0.3-0.1,0.4-0.1c0.1,0.2,0.2,0.4,0.3,0.6C153.7,20.2,153.6,20.3,153.4,20.4 M153.1,19.6c-0.1-0.2-0.2-0.5-0.2-0.7
				c0.1,0,0.3-0.1,0.4-0.1c0.1,0.2,0.2,0.5,0.3,0.7C153.4,19.5,153.3,19.6,153.1,19.6 M152.8,18.8c-0.1-0.3-0.2-0.5-0.2-0.8
				c0.1,0,0.2-0.1,0.3-0.1c0.1,0.3,0.2,0.5,0.3,0.8C153.1,18.7,153,18.8,152.8,18.8 M151.5,14.4c0.2,1,0.6,2.3,1,3.6
				c-0.1,0-0.1,0-0.2,0.1c-0.3-1.2-0.6-2.4-0.8-3.5L151.5,14.4z M152,6.9C152,6.9,152,6.9,152,6.9l-0.2,1.7
				c-0.2,0.1-0.4,0.3-0.7,0.4C151.5,8.1,151.8,7.4,152,6.9 M151.7,7.4c-0.2,0.5-0.4,1.1-0.7,1.7c-0.2,0.1-0.3,0.2-0.5,0.3
				C150.9,8.6,151.4,7.9,151.7,7.4 M150.3,9.6c0.2-0.1,0.4-0.2,0.5-0.3c-0.4,0.7-0.8,1.4-1.3,2.2c-0.3,0.2-0.6,0.3-0.9,0.5
				C149.2,11.1,149.8,10.3,150.3,9.6 M148.5,15.3l-0.5,0.3c0.1-0.2,0.3-0.3,0.5-0.5C148.5,15.1,148.5,15.2,148.5,15.3 M150.1,9.7
				c-0.5,0.8-1.1,1.6-1.7,2.3c-0.1,0-0.2,0.1-0.2,0.1c-0.9-0.2-1.7-0.6-2.1-0.9C146.7,11,148.4,10.6,150.1,9.7 M145.7,11.7
				c0.1,0,0.1-0.1,0.1-0.2c0,0,0,0,0-0.1l0.1,0l0-0.2c0.4,0.3,1.2,0.6,2,0.9c-0.4,0.2-0.6,0.3-0.6,0.3s0,0.2,0,0.2
				c-0.4,0.4-1.2,0.8-1.9,1.2L145.7,11.7z M145.6,20C145.5,20,145.5,20,145.6,20c0-0.3,0-0.5-0.1-0.8c0.1,0,0.1,0,0.2,0
				c0,0.3,0,0.5,0.1,0.8C145.7,20,145.6,20,145.6,20 M145.8,20.1c0,0,0,0.1,0,0.1c0,0-0.1-0.1-0.1-0.1
				C145.7,20.1,145.7,20.1,145.8,20.1 M145.5,19.1c0-0.3,0-0.5,0-0.7c0.1,0,0.1,0,0.2,0c0,0.2,0,0.5,0.1,0.7
				C145.6,19.1,145.6,19.1,145.5,19.1 M145.5,18.3c0-0.4,0-0.7,0-1c0,0,0.1,0,0.1-0.1c0,0.3,0.1,0.7,0.1,1
				C145.6,18.3,145.5,18.3,145.5,18.3 M145.4,16.9c0-0.2,0-0.4,0-0.5c0,0,0.1,0,0.1,0c0,0.1,0,0.3,0,0.5L145.4,16.9z M145.6,16.3
				c0.8-0.3,1.4-0.4,1.8-0.5l-1.8,1C145.6,16.6,145.6,16.5,145.6,16.3 M145.3,16.5c0,0.1,0,0.3,0,0.5l-0.1,0.1c0-0.2,0-0.4,0-0.6
				C145.2,16.5,145.3,16.5,145.3,16.5 M144.7,19.3L144.7,19.3c0.1-0.1,0.2-0.1,0.3,0c0,0.1,0,0.2,0,0.3
				C144.9,19.4,144.8,19.3,144.7,19.3 M145,19.7c0,0.1,0,0.2,0,0.3c-0.1,0-0.2,0-0.3-0.1l0.1-0.5C144.8,19.5,144.9,19.6,145,19.7
				 M144.5,14.3c0.3-0.3,0.5-0.6,0.6-0.7l-0.1,0.4C144.9,14.2,144.7,14.2,144.5,14.3 M144.5,20.8c0.1,0,0.2,0.1,0.4,0.1
				c0,0.2,0,0.3,0,0.5c-0.2-0.1-0.3-0.1-0.4-0.2L144.5,20.8z M144.6,20.6l0.1-0.6c0.1,0,0.2,0,0.3,0.1c0,0.2,0,0.4,0,0.6
				C144.8,20.7,144.7,20.7,144.6,20.6 M145,19.1c-0.1,0-0.2,0-0.2-0.1l0.1-0.7c0.1,0,0.1,0,0.2,0C145,18.6,145,18.9,145,19.1
				 M145,18.3c-0.1,0-0.1,0-0.2,0l0.1-0.7c0,0,0.1,0,0.1,0C145,17.8,145,18,145,18.3 M145,17.2l0.1-0.4
				C145.1,16.9,145.1,17,145,17.2L145,17.2z M145.4,11.6C145.4,11.6,145.4,11.6,145.4,11.6l-0.1,1.3c-2.2,0.7-4.4,2.6-4.4,2.6
				c-0.9,0.8-3.3,2.5-3.9,3l-1-0.6C136.9,17.2,143.1,13.6,145.4,11.6 M143,17.8c0.1,0.1,0.2,0.2,0.3,0.3l-0.4,0.2
				c0-0.1,0-0.1-0.1-0.2C142.9,18,142.9,17.9,143,17.8 M142.8,18.3L142.8,18.3C142.8,18.3,142.8,18.3,142.8,18.3
				C142.8,18.3,142.8,18.3,142.8,18.3 M140.5,20.8l1.7,1l-0.1,0L140.5,20.8C140.5,20.9,140.5,20.8,140.5,20.8 M138.2,20.1l1.8,1
				c-0.4,0.4-0.9,0.8-1.4,1.1c-0.3-0.4-0.6-0.8-0.8-1.2c-0.7-1.1-1.2-2.2-1.4-2.7l4,2.3c0,0,0,0-0.1,0.1l-1.9-1.1
				C138.2,19.9,138.2,20.1,138.2,20.1 M135.9,18.2l0.3,0.2c0.2,0.5,1,2.3,2.3,4c-0.6,0.5-1.1,0.9-1.3,1
				C137,21.7,136.2,19.1,135.9,18.2 M137.3,23.4c0.2-0.1,0.7-0.5,1.3-1c0.7,0.8,1.4,1.6,2.4,2.1C139.3,24,137.7,23.5,137.3,23.4
				 M141.8,24.3c0,0-0.2,0.2-0.4,0.4c-1.1-0.6-2-1.4-2.7-2.3c0.5-0.4,1-0.8,1.4-1.2l1.7,1l-0.4,0.3c0,0,0.1,0.2,0.4,0.3
				C141.6,22.8,142.7,23.3,141.8,24.3 M144,21.8c-0.4-0.1-0.9-0.2-1.4-0.4l-0.1,0.1l-0.9-0.5c0.1-0.2,0.6-1.4,1-2.2
				c0.1-0.1,0.3-0.1,0.4-0.2c0.3,0.6,0.6,1.4,1.2,2.3L144,21.8z M144.1,20.8c-0.5-0.8-0.9-1.6-1.1-2.2c0.2-0.1,0.3-0.2,0.5-0.3
				c0.2,0.2,0.5,0.5,0.8,0.8L144.1,20.8z M144.4,18.9c-0.3-0.2-0.5-0.5-0.7-0.7c0.3-0.2,0.6-0.3,0.9-0.5L144.4,18.9z M144.6,17.4
				l-1.2,0.6c-0.1-0.1-0.3-0.3-0.4-0.4c0,0,0,0,0,0c0.5-0.4,1.1-0.7,1.7-0.9L144.6,17.4z M144.4,21.9l0.1-0.4
				c0.1,0.2,0.3,0.4,0.4,0.5C144.7,22,144.5,22,144.4,21.9 M144.5,21.3L144.5,21.3c0.1,0,0.3,0.1,0.4,0.1c0,0.2,0,0.3,0,0.4
				C144.7,21.7,144.6,21.5,144.5,21.3 M145.2,17.4c0.1,0,0.1-0.1,0.2-0.1c0,0.3,0,0.6,0,0.9c-0.1,0-0.1,0-0.2,0
				C145.2,18,145.2,17.7,145.2,17.4 M145.1,18.4C145.1,18.4,145.1,18.4,145.1,18.4c0.1,0,0.1,0,0.2,0c0,0.2,0,0.5,0,0.7
				c-0.1,0-0.2,0-0.3,0C145.1,18.9,145.1,18.6,145.1,18.4 M145.1,19.2C145.1,19.2,145.2,19.2,145.1,19.2c0.1,0,0.2,0,0.3,0
				c0,0.2,0,0.4,0,0.6c-0.1-0.1-0.2-0.2-0.3-0.3C145.1,19.5,145.1,19.4,145.1,19.2 M145.1,19.8c0.1,0.1,0.2,0.2,0.3,0.3
				c-0.1,0-0.2,0-0.3,0C145.1,19.9,145.1,19.8,145.1,19.8 M145.1,20.1C145.1,20.1,145.1,20.1,145.1,20.1c0.1,0,0.2,0,0.3,0
				c0,0.2,0,0.4,0,0.7c-0.1,0-0.3,0-0.4,0C145.1,20.6,145.1,20.3,145.1,20.1 M145.1,20.9c0,0,0.1,0,0.2,0c0.1,0,0.1,0,0.2,0
				c0,0.2,0,0.3,0,0.5c-0.2,0-0.3,0-0.4,0C145,21.2,145,21,145.1,20.9 M145,22C145,22,145,22,145,22c0-0.2,0-0.4,0-0.6
				c0.1,0,0.1,0,0.2,0c0.1,0,0.2,0,0.2,0c0,0.2,0,0.4,0,0.6C145.3,22.1,145.2,22.1,145,22 M145.5,20.1c0.1,0.1,0.2,0.2,0.3,0.3
				c0,0.1,0,0.2,0,0.4c-0.1,0-0.2,0-0.3,0C145.5,20.6,145.5,20.4,145.5,20.1 M145.5,20.9c0.1,0,0.2,0,0.3,0c0,0.2,0,0.3,0,0.4
				c-0.1,0-0.2,0.1-0.3,0.1C145.6,21.2,145.5,21.1,145.5,20.9 M145.6,22.1c0-0.2,0-0.4,0-0.7c0.1,0,0.2,0,0.3-0.1c0,0.3,0,0.5,0,0.8
				C145.8,22.2,145.7,22.2,145.6,22.1 M149.8,24c-0.4,0-0.8,0-1.2-0.1c0,0,0.2-0.4,0.2-0.4s0.1-0.3-0.3-0.3c0,0-0.5-0.1-1.5-0.1
				c0,0-0.3,0-0.6-0.2c0,0-0.2-0.2,0-0.3c0,0,0.1-0.4,0.1-0.4s-0.1,0-0.4,0c0-0.5-0.1-1.1-0.1-1.7c1.2,1.1,2.6,2.2,3.9,3.1L149.8,24
				z M149.8,23.5c-1.3-0.9-2.7-2.1-3.9-3.1c-0.1-1.1-0.2-2.3-0.3-3.2c0.5-0.3,1-0.5,1.5-0.8c0.1,0.8,0.5,3.9,2.7,6.7L149.8,23.5z
				 M149.9,23c-2.2-2.8-2.6-5.9-2.6-6.7c0.4-0.2,0.9-0.5,1.3-0.7c0.2,1.1,0.6,2.7,1.7,4.3L149.9,23z M150.3,19.8
				c-1-1.6-1.5-3.2-1.6-4.2c0.7-0.4,1.4-0.8,2.1-1.2c0,0.2,0.1,0.3,0.1,0.5L150.3,19.8z M151,14.6c0-0.1,0-0.1-0.1-0.2
				c0,0,0.1,0,0.1,0c0,0,0,0,0,0L151,14.6z M151.1,13.5C151.1,13.5,151.1,13.5,151.1,13.5C151.1,13.5,151.1,13.5,151.1,13.5l0,0.3
				C151.1,13.7,151.1,13.6,151.1,13.5 M150.4,24L150.4,24C150.4,24,150.4,24,150.4,24C150.4,24,150.4,24,150.4,24 M150.4,23.9
				L150.4,23.9c0.1,0,0.1,0.1,0.2,0.1C150.6,23.9,150.5,23.9,150.4,23.9 M151,24c0,0-0.1,0-0.2,0c-0.1-0.1-0.2-0.2-0.3-0.3l0.3-3
				c0.2,0.3,0.4,0.5,0.6,0.8c0,0.4,0,0.8,0,1.1c-0.1,0-0.2,0-0.2,0C151.2,22.5,151,24,151,24 M151.5,21.3c0.1,0,0.2,0,0.3,0
				c0.1,0,0.2,0,0.4,0c0,0.2,0.1,0.5,0.1,0.7C152,21.8,151.8,21.6,151.5,21.3C151.5,21.3,151.5,21.3,151.5,21.3 M151.6,22.5
				c0-0.3,0-0.6,0-1c0.2,0.2,0.5,0.5,0.7,0.7c0,0,0,0.1,0,0.1C152,22.4,151.8,22.5,151.6,22.5 M152.4,22.3
				C152.4,22.3,152.4,22.3,152.4,22.3C152.4,22.3,152.4,22.3,152.4,22.3C152.4,22.3,152.4,22.3,152.4,22.3 M152.6,22.3
				c-0.1,0-0.1-0.1-0.2-0.1c0-0.3-0.1-0.5-0.1-0.8c0.2,0,0.4,0,0.6,0c0.1,0.3,0.1,0.6,0.2,0.9C152.9,22.2,152.7,22.3,152.6,22.3
				 M153.1,22.2c0-0.3-0.1-0.6-0.2-0.9c0.2,0,0.4-0.1,0.6-0.1c0.1,0.3,0.2,0.5,0.3,0.8C153.7,22,153.4,22.1,153.1,22.2 M154.1,21.9
				c-0.1-0.3-0.2-0.5-0.3-0.8c0.2-0.1,0.4-0.1,0.5-0.2c0.2,0.3,0.3,0.6,0.5,0.8C154.5,21.8,154.3,21.9,154.1,21.9 M154.9,21.7
				c-1.6-2.4-2.6-6.1-3.1-7.8c1.3-0.7,2.4-1.3,3.1-1.7c0,0.2,0,0.6,0.1,1.1c0.1,0.4,0.2,0.7,0.3,1c-0.3,0.5-0.6,1-0.8,1.6
				c-0.3,0.1-0.4,0.2-0.4,0.2c0,0.1-0.3,0.3-0.3,0.3c-0.1,0.2,0.1,0.2,0.3,0.1c0,0,0,0,0.1,0.1c0.1,0.8,0.3,3.1,1.7,4.9
				C155.6,21.5,155.2,21.6,154.9,21.7 M154.5,16.2c0.1,0.1,0.3,0.4,0.5,0.6c-0.3-0.2-0.5-0.4-0.7-0.5c0,0,0-0.1,0-0.1c0,0,0,0,0,0
				C154.4,16.3,154.4,16.3,154.5,16.2 M157,21c-0.1,0.1-0.3,0.1-0.5,0.2c0,0-0.2,0.1-0.6,0.2c-1.3-1.8-1.6-4-1.7-4.8
				c0.2,0.2,0.6,0.4,1,0.7c0.5,0.5,1.1,1.2,1.9,1.7L157,21z M157.3,18.8c-0.6-0.4-1.1-0.9-1.6-1.4c0.5,0.3,1,0.7,1.6,1L157.3,18.8z
				 M157.3,18.4c-0.7-0.4-1.4-0.9-1.9-1.2c-0.4-0.4-0.6-0.7-0.8-0.9c0.3-0.1,0.6-0.3,0.6-0.3c0.7-0.3,0.9-0.2,0.9-0.2
				c0.2,0.1,0.5,0,0.7,0c0.1,0.2,0.4,0.6,0.7,1L157.3,18.4z M157.5,16.6c-0.3-0.4-0.5-0.7-0.6-0.9c0.1,0,0.2-0.1,0.2-0.1
				c0.2-0.1,0.4-0.2,0.6-0.3L157.5,16.6z M157.8,14c-0.6,0.3-1.2,0.7-1.8,1c-0.3-0.2-0.4-0.4-0.6-0.7c0.8-1.2,1.7-2.1,2.3-2.7
				c0.1,0,0.2,0.1,0.3,0.1L157.8,14z M158,11.6c-0.1,0-0.2-0.1-0.2-0.1c0.1-0.1,0.1-0.1,0.2-0.2c0,0,0,0.1,0.1,0.1L158,11.6z
				 M157.5,20.7l0.1-1.4c0.3,0.2,0.6,0.3,0.9,0.5c0,0,0,0,0,0C158.4,20,158,20.4,157.5,20.7 M158.7,19.7
				C158.6,19.7,158.6,19.7,158.7,19.7c-0.1-0.2-0.1-0.3-0.1-0.5c0.3,0.2,0.6,0.3,0.9,0.4C159,19.7,158.7,19.7,158.7,19.7
				 M159.7,19.6c-0.4-0.2-0.8-0.4-1.2-0.6c-0.1-0.4-0.1-0.8-0.2-1.3c0.6,0.7,1.2,1.4,1.8,1.8C159.9,19.6,159.8,19.6,159.7,19.6
				 M160.3,19.6c-0.7-0.5-1.4-1.3-2-2c-0.1-0.9-0.2-1.7-0.2-2.2l0-0.4c0.4-0.3,0.6-0.6,0.5-0.6c0.1-0.2,0.2-0.3,0.3-0.5l1.5,5.8
				C160.4,19.6,160.3,19.6,160.3,19.6 M160.6,19.6l-1-3.9l1.2,3.8C160.7,19.6,160.7,19.6,160.6,19.6"/>
			<path class="st4" d="M115.8,55.2c0,0,2.5-8,6-9.5c0,0,1.6-2.7,3.5-3.5c0,0,4.3-7.6,13.7-6.1c0-0.1,1.3-1,2.4,0.1
				c0-0.1,4.1-0.2,4.1-0.2s1.1-1.9,2.7-0.2c0-0.2,3.9-0.3,3.9-0.3s1.7-1.5,2.7,0.2c0.1-0.1,2-0.2,2-0.2s2-2.7,4.4,1.1
				c0,0,2.7-0.5,4.6,2.2c0-0.1,5.6,1,7.9,7.5c0.1,0.1-3.6-0.4-7.1,2c0.2,0-9.3,8.6-9.3,8.6l-34.8,1.5L115.8,55.2z"/>
			<path class="st5" d="M115.8,55.2c0,0,2.5-8,6-9.5c0,0,1.6-2.7,3.5-3.5c0,0,4.3-7.6,13.7-6.1c0-0.1,1.3-1,2.4,0.1
				c0-0.1,4.1-0.2,4.1-0.2s1.1-1.9,2.7-0.2c0-0.2,3.9-0.3,3.9-0.3s1.7-1.5,2.7,0.2c0.1-0.1,2-0.2,2-0.2s2-2.7,4.4,1.1
				c0,0,2.7-0.5,4.6,2.2c0-0.1,5.6,1,7.9,7.5c0.1,0.1-3.6-0.4-7.1,2c0.2,0-9.3,8.6-9.3,8.6l-34.8,1.5L115.8,55.2z"/>
			<path class="st6" d="M125.3,42.2c0,0-5,2.4-7.4,14"/>
			<path class="st6" d="M122.4,58.3c0,0-2.6-23.6,15.8-22.3"/>
			<path class="st6" d="M135,57.8c0,0,0.5-25.7,6.3-21.6"/>
			<path class="st6" d="M143.2,57.4c0,0-1.2-26.5,4.9-21.7"/>
			<path class="st6" d="M149.8,57.1c0,0-0.6-26.7,4.9-21.5"/>
			<path class="st6" d="M156.7,35.4c0,0,6.8-6.2,4.4,17.8"/>
			<path class="st6" d="M161.1,36.5c0,0,6-1.9,6.2,11.2"/>
			<path class="st6" d="M128.5,58c0,0-1.2-22.2,10.4-22"/>
			<path class="st6" d="M159.9,35.4c0,0-5.7,7.5-5.3,21.6"/>
			<line class="st7" x1="122.3" y1="54.1" x2="162.1" y2="52.3"/>
			<polygon class="st3" points="65.9,213.4 63.2,213.9 63,217.4 66.4,217.9 			"/>
			<polygon class="st8" points="65.5,214.4 63.7,214.8 61.1,215 59.5,214.6 59,213.7 56.3,213.8 55.9,214.4 51.9,214.4 47.7,213 
				47.4,213.7 45.9,213.1 42.8,213.6 40,212.7 40.5,203.4 54.3,200.2 66.6,205.1 			"/>
			<path class="st3" d="M51.5,226.6l0.4-3l0.2,0l0.2-2.2c0,0,0,0,0,0c0,0-0.4-0.6-0.4-0.6l0.4-3l0.3,0l1-11.8l2,3.8l-0.2,8.1l0.5,0
				l0.1,3.1l-0.7,0.5l-0.1,2.2l0.3,0l0.1,3.1l-0.4,0.4l-0.1,3l-3.5-0.2l0.3-2.9h0C51.8,227.1,51.5,226.6,51.5,226.6"/>
			<path class="st3" d="M42.2,228.7l0.5-3l0.2,0l0.3-2.2l0,0c0,0-0.4-0.6-0.4-0.6l0.5-3l0.3,0l1.6-11.7l1.8,3.9l-0.6,8.1l0.5,0.1
				l-0.1,3.1l-0.7,0.5L46,226l0.3,0l-0.1,3.1l-0.4,0.4l-0.2,2.9l-3.5-0.4l0.4-2.9h0C42.5,229.1,42.2,228.7,42.2,228.7"/>
			<polygon class="st9" points="68,210.1 67.4,234.7 63.1,234.4 65.7,205.5 			"/>
			<polygon class="st10" points="68.4,219.9 64,219.6 63.5,223.3 68.5,223.6 			"/>
			<polygon class="st10" points="67.9,227 63.6,226.7 63.1,230.3 68,230.7 			"/>
			<path class="st11" d="M68.5,223.6l-0.8,0.6c0,0-1.6-1-3.6-0.2c0,0-0.5-0.7-0.5-0.7L68.5,223.6z"/>
			<path class="st11" d="M68,230.7l-0.5,0.5c0,0-2-0.7-4-0.3c0,0-0.4-0.5-0.4-0.5L68,230.7z"/>
			<polygon class="st9" points="41.5,203.9 40.7,232.9 36.5,232.7 38.6,208.2 			"/>
			<polygon class="st10" points="41.7,218.2 37.3,217.9 36.9,221.5 41.8,221.9 			"/>
			<polygon class="st10" points="41.2,225.2 36.9,224.9 36.4,228.6 41.3,228.9 			"/>
			<path class="st12" d="M41.8,221.9l-0.8,0.6c0,0-1.6-1-3.6-0.2c0,0-0.5-0.7-0.5-0.7L41.8,221.9z"/>
			<path class="st12" d="M41.3,228.9l-0.5,0.5c0,0-2-0.7-4-0.3c0,0-0.4-0.5-0.4-0.5L41.3,228.9z"/>
			<polygon class="st9" points="45.3,202.4 44.6,230 39.9,229.7 42.2,204.5 			"/>
			<polygon class="st9" points="64.4,206 63.6,231.3 59,231 61.4,204 			"/>
			<polygon class="st9" points="54.7,201.6 54,228.6 49.7,228.3 52,201.7 			"/>
			<polygon class="st10" points="54.9,213.8 50.6,213.5 50.1,217.2 55,217.5 			"/>
			<polygon class="st10" points="54.5,220.9 50.2,220.6 49.7,224.2 54.6,224.5 			"/>
			<path class="st11" d="M55,217.5l-0.8,0.6c0,0-1.6-1-3.6-0.2c0,0-0.5-0.7-0.5-0.7L55,217.5z"/>
			<path class="st11" d="M54.6,224.5l-0.5,0.5c0,0-2-0.7-4-0.3c0,0-0.4-0.5-0.4-0.5L54.6,224.5z"/>
			<path class="st13" d="M49.7,178.2c0,0-10.5,3.6-10.4,17.9c0-0.1,10.2-5.9,10.2-5.9L49.7,178.2z"/>
			<path class="st9" d="M60.7,179.1c0,0,7.8,3.5,9.2,15.3c0-0.3-6.2,0.5-6.2,0.5L60.7,179.1z"/>
			<path class="st9" d="M55.7,177.6l-6.1,0.6c0,0-6.9,1.5-6.2,14.8c-0.1,0.2,12-1.3,12-1.3L55.7,177.6z"/>
			<path class="st10" d="M66.7,193.3c0,0,1-14.7-10.9-15.7c-0.1,0.1-1.9,7.2-1.6,13.8C54.2,191.4,66.7,193.3,66.7,193.3"/>
			<polygon class="st9" points="56.4,191.5 56.5,190.2 47.4,187.4 38.2,192.6 38.1,193.8 			"/>
			<polygon class="st12" points="53.9,190.7 47.5,188.8 40.9,192.4 			"/>
			<polygon class="st13" points="56.5,190.2 58.1,191.5 58,192.8 56.4,191.5 			"/>
			<polygon class="st14" points="58.1,191.5 63.8,192.7 63.7,194.3 58,192.8 			"/>
			<polygon class="st13" points="63.8,192.7 66.5,192.4 66.4,194.1 63.7,194.3 			"/>
			<polygon class="st9" points="66.5,192.4 70.5,192.7 74,200.8 72.9,201.7 66.1,194.1 			"/>
			<polygon class="st12" points="72.2,199.3 69.9,194.1 67.4,193.9 			"/>
			<polygon class="st13" points="72.9,201.7 70.7,202.1 65.2,195.8 66.1,194.1 			"/>
			<polygon class="st15" points="65.2,195.8 63.6,195.7 63.7,194.3 66.1,194.1 			"/>
			<polygon class="st15" points="58,192.8 57.6,194.2 55.7,192.9 56.4,191.5 			"/>
			<polygon class="st9" points="63.7,194.3 58,192.8 57.6,194.2 63.6,195.7 			"/>
			<polygon class="st13" points="38.1,193.8 39.7,194.9 55.7,192.9 56.4,191.5 			"/>
			<polygon class="st13" points="65.2,195.8 64.3,198.1 63.5,198 63.6,195.7 			"/>
			<polygon class="st9" points="70.7,202.1 69.7,203.3 64.3,198.1 65.2,195.8 			"/>
			<polygon class="st13" points="57.6,194.2 56.7,195.8 54.9,195.2 55.7,192.9 			"/>
			<polygon class="st2" points="39.7,194.9 42.1,196.4 54.9,195.2 55.7,192.9 			"/>
			<polygon class="st2" points="63.5,198 56.7,195.8 57.6,194.2 63.6,195.7 			"/>
			<polygon class="st13" points="63.5,198 63.3,201.4 64.1,201.1 64.3,198.1 			"/>
			<polygon class="st16" points="64.3,198.1 69.7,203.3 69.5,206.3 64.1,201.1 			"/>
			<polygon class="st14" points="63.3,201.4 63.5,198 56.7,195.8 56.4,199.3 			"/>
			<polygon class="st17" points="56.7,195.8 54.9,195.2 54.7,198.7 56.4,199.3 			"/>
			<polygon class="st9" points="54.9,195.2 42.1,196.4 41.9,200.2 54.7,198.7 			"/>
			<polygon class="st9" points="69.5,206.3 69.6,210.4 63.8,204.7 64.1,201.1 			"/>
			<polygon class="st13" points="64.1,201.1 63.3,201.4 63.1,204.5 63.8,204.7 			"/>
			<polygon class="st18" points="63.3,201.4 56.4,199.3 56.2,202.9 63.1,204.5 			"/>
			<polygon class="st17" points="56.2,202.9 54.5,201.9 54.7,198.7 56.4,199.3 			"/>
			<polygon class="st9" points="54.7,198.7 41.9,200.2 41.7,203.5 54.5,201.9 			"/>
			<polygon class="st13" points="74,200.8 74.8,200.8 70.8,192.1 70.5,192.7 			"/>
			<polygon class="st14" points="70.8,192.1 66.5,191.8 66.5,192.4 70.5,192.7 			"/>
			<polygon class="st15" points="66.5,191.8 63.9,192.1 63.8,192.7 66.5,192.4 			"/>
			<polygon class="st15" points="58.1,191.5 58.4,190.8 56.9,189.4 56.5,190.2 			"/>
			<polygon class="st14" points="56.9,189.4 47.3,186.3 37.3,191.7 38.2,192.6 47.4,187.4 56.5,190.2 			"/>
			<polygon class="st9" points="63.9,192.1 58.4,190.8 58.1,191.5 63.8,192.7 			"/>
			<polygon class="st15" points="38.1,193.2 36.4,195.3 33.7,195.4 34.8,196.9 37,196.9 39.4,194.7 38.1,193.8 			"/>
			<polygon class="st19" points="34.8,196.9 34.8,197.8 37.3,197.8 40.1,195.1 39.4,194.7 37,196.9 			"/>
			<polygon class="st13" points="34.8,197.8 38.4,201.2 42.1,196.4 40.1,195.1 37.3,197.8 			"/>
			<polygon class="st17" points="41.7,203.5 38.1,207.8 38.4,201.2 42.1,196.4 			"/>
			<polygon class="st10" points="46.3,215.8 42.9,214.4 42.7,217.8 46.1,219.2 			"/>
			<polygon class="st17" points="42.9,214.4 40.1,215.4 39.9,218.8 42.7,217.8 			"/>
			<polygon class="st10" points="45.8,222.9 42.5,221.5 42.3,224.8 45.6,226.2 			"/>
			<polygon class="st17" points="42.5,221.5 39.6,222.5 39.4,225.8 42.3,224.8 			"/>
			<path class="st11" d="M46.1,219.2l-1.2,0.3c0,0-1.4-1.8-4-0.4c0,0.1-1-0.2-1-0.2l2.8-1L46.1,219.2z"/>
			<path class="st11" d="M45.6,226.2l-0.9,0.3c0,0-2.1-1.7-4.5-0.3l-0.8-0.4l2.8-1L45.6,226.2z"/>
			<polygon class="st10" points="65.4,217.1 62,215.7 61.8,219 65.1,220.4 			"/>
			<polygon class="st17" points="62,215.7 59.2,216.7 58.9,220 61.8,219 			"/>
			<polygon class="st10" points="64.9,224.1 61.5,222.7 61.3,226.1 64.7,227.5 			"/>
			<polygon class="st17" points="61.5,222.7 58.7,223.7 58.5,227.1 61.3,226.1 			"/>
			<path class="st11" d="M65.1,220.4l-1.2,0.3c0,0-1.4-1.8-4-0.4c0,0.1-1-0.2-1-0.2l2.8-1L65.1,220.4z"/>
			<path class="st11" d="M64.7,227.5l-0.9,0.3c0,0-2.1-1.7-4.5-0.3l-0.8-0.4l2.8-1L64.7,227.5z"/>
			<polygon class="st19" points="69.6,210.4 68.3,210.9 63,205.5 63.8,204.7 			"/>
			<polygon class="st11" points="63.1,204.5 62.7,205.3 63,205.5 63.8,204.7 			"/>
			<polygon class="st15" points="63.1,204.5 56.2,202.9 55.9,203.7 62.7,205.3 			"/>
			<polygon class="st13" points="56.2,202.9 54.5,201.9 54.1,202.7 55.9,203.7 			"/>
			<polygon class="st19" points="54.5,201.9 41.7,203.5 42.9,204.4 54.1,202.7 			"/>
			<polygon class="st11" points="41.7,203.5 38.1,207.8 38.8,208.9 42.9,204.4 			"/>
			<polygon class="st9" points="167.7,211.1 170.6,211.3 172.4,213 173.9,217.6 176.5,223 178.8,226.6 182.5,230.1 185.4,231.6 
				191.6,232 189.6,262.5 157.3,258.6 157.7,252 158.9,210.5 			"/>
			<polygon class="st9" points="67.3,230.8 72.6,227.5 77.7,222.5 80.6,217 82.6,212.1 86.1,209.6 87.5,235.6 79.7,252.4 
				78.2,274.1 57.2,272.9 63.5,234.5 			"/>
			<polygon class="st2" points="-29.4,264.8 -41,372.3 43.6,368.5 41.9,240.1 			"/>
			<polygon class="st9" points="38,238.5 -29,259.8 -29.2,261.9 38.4,240.3 			"/>
			<polygon class="st15" points="-29.2,261.9 -29.4,264.8 41.4,242.5 42.7,239.7 38.4,240.3 			"/>
			<path class="st2" d="M80.9,237.8l-0.5,7.8c0,0,9.6-0.8,9.6-1c-0.1-0.2-0.5-10.1-0.5-10.1L80.9,237.8z"/>
			<path class="st9" d="M85.3,209.9c0,0-2.7-0.8-3.6,2.6c0.1,0-6.2,17.6-16.9,17.1c0-0.1-1.2,2.4-1.2,2.4s12.5,2.2,19.7-19
				c0,0.1,0.8-1.3,2-1.1C85.4,211.9,85.3,209.9,85.3,209.9"/>
			<path class="st20" d="M83.3,212.5c0,0.1,0.8-1.3,2-1.1c0,0,0-0.1,0-0.3c0,0.4,0,0.8,0,0.9c-1.3-0.1-2,1.3-2,1.1
				c-7.1,21.2-19.7,19-19.7,19s0.1-0.2,0.3-0.5C65.7,231.7,76.8,232,83.3,212.5"/>
			<polygon class="st21" points="220.8,233 275.1,245.5 273.8,246.6 220.6,234.2 			"/>
			<polygon class="st17" points="175.3,140.3 175.9,140.3 188.6,182 185.4,231.6 180.1,228.2 176.1,222.3 172.5,213.5 171.4,210.9 
				169.7,211.1 			"/>
			<polygon class="st13" points="140.2,210.6 142.7,210.7 160.4,217.6 160.6,218.4 160.2,224.7 139.8,219 			"/>
			<polygon class="st17" points="86.8,217.8 99.6,210 100.5,212.3 100,219.1 91.2,219.3 89.5,219.9 			"/>
			<polygon class="st12" points="88.7,217.5 89.6,218.5 88.4,219.2 87.2,219.1 87.2,218.6 			"/>
			<polygon class="st14" points="83,216.1 88.6,142.4 99.6,138.8 161,137.2 175.3,139.2 175.2,140.4 169.3,216.9 169,217.8 
				162.4,217 159.4,217.1 139.9,209.3 97.6,210.3 87.1,216.9 83.2,217 			"/>
			<polygon class="st22" points="110.3,165.9 148.1,165.5 145.2,210 106.2,208.6 			"/>
			<polygon class="st15" points="112.9,169.2 145.4,168.8 145.5,167.6 112.9,167.9 			"/>
			<path class="st11" d="M129.1,171.3c-8.5-0.6-15.8,5.9-16.4,14.4l-1.5,23.4l0.3,0l1.5-23.1c0.6-8.4,7.8-14.8,16.2-14.2
				c8.4,0.6,14.8,7.8,14.2,16.2l0-0.2C144,179.2,137.6,171.8,129.1,171.3"/>
			<path class="st15" d="M129.2,171.7c-8.4-0.6-15.7,5.8-16.2,14.2l-1.5,23.1l2.7,0.2l1.4-21.1c0.5-7.7,7.1-13.5,14.8-13
				c7.7,0.5,13.5,7.1,13,14.8l0.1-2.1C144,179.5,137.6,172.2,129.2,171.7"/>
			<polygon class="st8" points="115.4,204.7 115.1,209.3 123.3,209.8 123.6,204.6 			"/>
			<polygon class="st8" points="134.2,203.8 142.4,203.8 143.3,190.7 143.3,190.7 135.1,190.7 			"/>
			<polygon class="st8" points="124.5,190.8 116.3,190.9 115.5,204 123.7,203.9 			"/>
			<path class="st8" d="M125.4,177.1c-4.9,1.7-8.5,6.2-9,11.7l8.2,0L125.4,177.1z"/>
			<path class="st8" d="M133.7,188.7l0.8-11.6c-1.2-0.4-2.4-0.7-3.7-0.8c-1.3-0.1-2.6,0-3.8,0.3l-0.8,12.1L133.7,188.7z"/>
			<polygon class="st8" points="134.2,204.6 133.8,210.5 141.9,211 142.4,204.5 			"/>
			<path class="st8" d="M143.2,188.7c-0.4-4.7-3.2-8.8-7.3-10.9l-0.7,10.9L143.2,188.7z"/>
			<polygon class="st8" points="126.1,190.8 125.2,203.9 132.7,203.8 133.6,190.7 			"/>
			<polygon class="st8" points="125.1,204.6 124.8,209.9 132.3,210.4 132.7,204.6 			"/>
			<polygon class="st23" points="125.2,203.9 125.1,204.6 132.7,204.6 132.7,203.8 			"/>
			<path class="st23" d="M130.4,175.2c-7.7-0.5-14.3,5.3-14.8,13l-1.4,21.1l0.9,0.1l0.3-4.6l8.2-0.1l-0.3,5.2l1.5,0.1l1.3-19.1
				l7.5-0.1l-1.3,19.7l1.5,0.1l0.4-5.9l8.2-0.1l-0.4,6.5l1.4-21.1C143.8,182.3,138,175.7,130.4,175.2 M123.7,203.9l-8.2,0.1
				l0.9-13.1l8.2-0.1L123.7,203.9z M124.7,188.7l-8.2,0c0.4-5.5,4.1-9.9,9-11.7L124.7,188.7z M133.7,188.7l-7.5,0l0.8-12.1
				c1.2-0.3,2.5-0.4,3.8-0.3c1.3,0.1,2.5,0.4,3.7,0.8L133.7,188.7z M135.9,177.8c4.1,2.1,6.9,6.2,7.3,10.9l-8,0L135.9,177.8z
				 M142.4,203.8l-8.2,0.1l0.9-13.1l8.2-0.1v0L142.4,203.8z"/>
			<polygon class="st19" points="112,167.9 112.9,167.9 110.2,208.2 108.3,208.2 111,167.8 			"/>
			<polygon class="st2" points="105.9,167.9 103.2,208.9 109,208.8 111.7,167.8 			"/>
			<polygon class="st17" points="103.5,189.8 111,189.7 110.6,196.5 103.1,196.5 			"/>
			<polygon class="st17" points="102.9,198.2 110.5,198.2 110,205.1 102.5,205.2 			"/>
			<polygon class="st11" points="103.1,196.5 103.9,197.8 104,196.5 			"/>
			<polygon class="st11" points="102.5,205.2 103.3,206.5 103.4,205.2 			"/>
			<polygon class="st20" points="111,189.7 111.8,191.1 111.3,198 110.6,196.5 			"/>
			<polygon class="st11" points="103.1,196.5 110.6,196.5 110.9,197.1 103.4,197 			"/>
			<polygon class="st11" points="109.8,197.1 110.9,198 111.3,198 110.6,196.5 			"/>
			<polygon class="st11" points="102.5,205.2 110,205.1 110.3,205.5 102.8,205.6 			"/>
			<polygon class="st19" points="151.8,167.2 152.5,167.1 149.5,211.4 148,211.4 150.9,167.2 			"/>
			<polygon class="st2" points="145.5,167.2 142.7,209.6 148.9,210.4 151.7,167.1 			"/>
			<polygon class="st17" points="143,189.8 151,189.8 150.6,196.8 142.6,196.8 			"/>
			<polygon class="st17" points="142.5,198.5 150.4,198.5 150,205.7 142,205.8 			"/>
			<polygon class="st11" points="142.6,196.8 143.5,198.1 143.6,196.8 			"/>
			<polygon class="st11" points="142,205.8 142.9,207.1 143,205.8 			"/>
			<polygon class="st20" points="151,189.8 151.8,191.2 151.3,198.2 150.6,196.8 			"/>
			<polygon class="st20" points="150.4,198.5 151,199.8 150.5,207 150,205.7 			"/>
			<polygon class="st11" points="142.6,196.8 150.6,196.8 151,197.6 142.9,197.3 			"/>
			<polygon class="st11" points="149.7,197.3 150.4,198.1 151.3,198.2 150.6,196.8 			"/>
			<polygon class="st11" points="142,205.8 150,205.7 150.2,206.4 142.3,206.2 			"/>
			<polygon class="st17" points="189.1,106.9 187.1,115.4 182.2,113.2 176.9,113.2 174.3,103.7 176.5,92.8 179.4,93 			"/>
			<polygon class="st19" points="181.2,101.9 177.9,92.7 176.9,92.8 181.1,103.1 			"/>
			<polygon class="st15" points="181.2,101.9 176.9,89.8 177.4,82.9 181,86.1 181.5,96.3 			"/>
			<polygon class="st11" points="185.1,93.9 181.6,96.3 177.6,82.4 178.6,72.5 180.6,74.2 			"/>
			<polygon class="st15" points="181.3,71.6 186.4,90.5 185.1,93.9 179.1,72 			"/>
			<polygon class="st14" points="118.5,68.2 164.1,65.6 161.6,110.6 110.9,111.2 			"/>
			<polygon class="st3" points="178.2,70.5 167,72.6 165.4,107.3 174.1,110.8 			"/>
			<polygon class="st3" points="101.2,111.5 103.1,69.8 111.4,64.4 119.2,70 116.4,113.4 			"/>
			<polygon class="st2" points="159.4,75.7 157.1,110.3 161,108.8 162.5,73.1 			"/>
			<polygon class="st17" points="161.7,74.2 159.4,109.5 165.3,106.6 166.9,74.3 			"/>
			<polygon class="st15" points="161.7,74.2 166.3,75.6 166.7,73.6 161.4,71.8 			"/>
			<polygon class="st17" points="161.5,69.4 166,71.2 165.9,73.5 161.4,71.8 			"/>
			<polygon class="st17" points="115.1,77 117.5,75.4 115.1,110.9 112.9,110.9 			"/>
			<polygon class="st2" points="117.5,75.4 120,76.4 117.8,111.1 115.1,111.5 			"/>
			<polygon class="st19" points="100.3,76.5 102.6,77.5 106.7,76.4 107.7,76.3 106.8,73.9 103.2,73.1 			"/>
			<path class="st13" d="M106.8,76.4c-0.1,0.8-1.3,1.4-2.7,1.3c-1.5-0.1-2.6-0.9-2.5-1.7c0.1-0.8,1.3-1.4,2.7-1.3
				C105.8,74.8,106.9,75.6,106.8,76.4"/>
			<path class="st9" d="M102.2,78.3l0.1-1.3c0,0,2-1.5,4,0.3c0,0-0.1,1.5-0.1,1.5L102.2,78.3z"/>
			<path class="st13" d="M106.6,79.6c-0.1,1.2-1.3,2-2.6,1.9c-1.4-0.1-2.4-1.1-2.4-2.3c0.1-1.2,1.3-2,2.6-1.9
				C105.6,77.4,106.6,78.4,106.6,79.6"/>
			<polygon class="st13" points="100.3,75.6 100.3,76.5 103.4,73.4 103.5,72.5 			"/>
			<path class="st9" d="M102,79.9c0,0,0.5-1.5,1.7-1.5c0,0,2-0.1,2.3,1.6c0,0.1-1.9,24.1-1.9,24.1s-1.3,1.4-0.8,2.9
				c0-0.1-1.6,2.2-1.6,2.2s-1.4-0.5-2.1-0.3C99.7,108.9,102,79.9,102,79.9"/>
			<polygon class="st15" points="112.3,112.9 158.6,111.4 158.7,113.6 111.3,114.9 			"/>
			<polygon class="st3" points="161.5,69.4 176.5,75.2 177.2,69.4 167.5,64.5 			"/>
			<polygon class="st19" points="163.3,69.2 169.3,71.6 173.3,68.8 167.4,65.8 			"/>
			<polygon class="st19" points="172.7,72.9 176.1,70.3 181.2,72.8 177.8,74.8 			"/>
			<polygon class="st19" points="104.5,72.3 107.6,73.2 111.9,73.6 114.8,70.5 108.9,68 			"/>
			<polygon class="st14" points="103.5,72.5 108.3,73.8 108.2,74.6 103.4,73.4 			"/>
			<path class="st13" d="M113,71.5c-0.1,1-1.6,1.7-3.4,1.6c-1.8-0.1-3.3-1-3.2-2c0.1-1,1.6-1.7,3.4-1.6
				C111.6,69.6,113.1,70.5,113,71.5"/>
			<path class="st9" d="M107.1,73.2l0.1-1.5c0,0,2.3-1.6,4.8,0.3c0,0.1-0.1,1.5-0.1,1.5L107.1,73.2z"/>
			<path class="st13" d="M179.8,73c-0.1,0.8-1.4,1.4-2.9,1.3c-1.6-0.1-2.8-0.9-2.7-1.7c0.1-0.8,1.4-1.4,2.9-1.3
				C178.6,71.5,179.9,72.2,179.8,73"/>
			<path class="st13" d="M171.4,69c-0.1,1.1-1.6,1.9-3.4,1.8c-1.8-0.1-3.2-1.1-3.1-2.2c0.1-1.1,1.6-1.9,3.4-1.8
				C170,66.9,171.5,67.9,171.4,69"/>
			<path class="st9" d="M165.6,70.8l0.1-1.6c0,0,2.4-1.3,4.8,0.5c0,0-0.1,1.8-0.1,1.8L165.6,70.8z"/>
			<path class="st9" d="M174.5,74.6l0.1-1.3c0,0,2-1.5,4.6,0.3c0,0.1-0.1,1.6-0.1,1.6L174.5,74.6z"/>
			<path class="st13" d="M112.5,74.6c-0.1,1.4-1.5,2.4-3.2,2.3c-1.7-0.1-3-1.3-2.9-2.7c0.1-1.4,1.5-2.4,3.2-2.3
				C111.3,72,112.5,73.2,112.5,74.6"/>
			<path class="st13" d="M179.8,76c-0.1,1.1-1.5,1.9-3.2,1.8c-1.7-0.1-3-1.1-2.9-2.2c0.1-1.1,1.5-1.9,3.2-1.8
				C178.6,73.9,179.9,74.9,179.8,76"/>
			<path class="st13" d="M171,72.1c-0.1,1.2-1.5,2.1-3.2,2c-1.7-0.1-3-1.2-2.9-2.4c0.1-1.2,1.5-2.1,3.2-2
				C169.8,69.8,171.1,70.9,171,72.1"/>
			<path class="st13" d="M121.8,110.1l30.8-0.7l1.8-21.5c0,0,0.4-12.8-12.6-15.1c-0.4-0.1-1.5-0.2-2.2-0.1
				c-3.3,0.2-12.7,1.4-15.7,12.4c-0.2,0.7-0.5,2.7-0.6,3.7L121.8,110.1z"/>
			<path class="st17" d="M150.7,109.4c0,0,1.2-15.7,1.6-20.8c0.1-1-0.1-2.5-0.2-3c-3.2-10.7-11.7-10.1-11.7-10.1
				c-13.5-0.3-15.4,11.7-15.4,11.7l-1.8,22.9L150.7,109.4z"/>
			<path class="st9" d="M125.5,110l1.9-22.1c0,0,1-9.4,12.1-9.7c0.4,0,8.1-0.6,10.4,8.5c0.1,0.4,0.2,1.6,0.2,2.3
				c-0.4,4.3-1.6,20.4-1.6,20.4L125.5,110z"/>
			<path class="st13" d="M157,56.3l9.3-8.6c0,0,12.8-9.6,23.7,13.2c0,0-1.6,1.7-1.6,1.7s-8.3-20-21.5-12.4c0,0-9.7,8.4-9.7,8.4
				l-35.7,1.5l-14-6.9c0,0-4.9-8-12.3,13.3l-1-0.8l-0.5,0c0,0,7.2-22.3,13.6-14.8l14.9,6.9L157,56.3z"/>
			<path class="st2" d="M95.2,66.5c0,0,6.4-20.5,12.3-13.3L95.2,66.5z"/>
			<path class="st8" d="M95.9,65.7c0,0,6.3-18.2,11.1-12C107,53.7,95.9,65.7,95.9,65.7"/>
			<path class="st2" d="M166.7,50.3c0,0,11.3-9.5,21.7,12.2L166.7,50.3z"/>
			<path class="st8" d="M167.6,50.8c0,0,9.8-7.7,19.6,11C187.3,61.9,167.6,50.8,167.6,50.8"/>
			<polygon class="st17" points="95.2,66.5 95.3,67.9 107.7,54.8 107.5,53.2 			"/>
			<polygon class="st2" points="107.5,53.2 121.5,60.1 121.4,61.6 107.7,54.8 			"/>
			<polygon class="st14" points="121.5,60.1 157.2,58.5 157.9,59.9 121.4,61.6 			"/>
			<polygon class="st2" points="157.2,58.5 166.7,50.3 166.6,52.2 157.9,59.9 			"/>
			<polygon class="st17" points="166.7,50.3 188.5,62.5 188.2,64 166.6,52.2 			"/>
			<polygon class="st19" points="95.3,67.9 107.7,54.8 121.4,61.6 157.9,59.9 166.6,52.2 188.2,64 186.4,65.4 167.3,54.7 
				159.5,61.6 121.3,63.7 108.6,57.6 97.6,68.8 			"/>
			<polygon class="st24" points="97.6,68.8 102.2,70.5 102.3,69.7 98.3,68.1 			"/>
			<polygon class="st24" points="186.4,65.4 180.5,70.3 180.7,68.4 185.1,64.7 			"/>
			<path class="st11" d="M98.3,68.1l10.3-10.5l12.7,6.1l38.2-2.1l7.8-6.9l17.8,10l-4.5,3.7l0.2-2.7c0,0,1.3-0.6,0.2-1.5
				c0,0-13.2-7.2-13.2-7.2l-7.5,6.5l-39.1,2.2L109,60.2l-7.6,7.6c0,0-0.7,1.1,0.6,1.1c0,0,0.3,0.3,0.3,0.3l0,0.5L98.3,68.1z"/>
			<path class="st12" d="M102,68.9l7.3-7.4L121,67l39.5-2l7.3-6l12.9,6.8c0,0,1.6-0.7-0.1-1.6c0,0-13-7.1-13-7.1l-7.5,6.5l-39.1,2.2
				L109,60.2l-7.6,7.5C101.4,67.8,100.6,68.9,102,68.9"/>
			<polygon class="st17" points="102.2,70.5 102.3,69.2 102,68.9 109.3,61.6 109,66.2 102,73.2 			"/>
			<polygon class="st9" points="109.3,61.5 121,67 120.8,71.3 109,66.2 			"/>
			<polygon class="st2" points="121,67 160.6,64.9 160.3,69.5 120.8,71.3 			"/>
			<polygon class="st9" points="160.6,64.9 167.9,58.9 167.6,63.3 160.3,69.5 			"/>
			<polygon class="st17" points="167.9,58.9 180.8,65.7 180.5,70.3 167.6,63.3 			"/>
			<polygon class="st22" points="102,73.2 99.5,75.6 100.3,75.6 108.9,67.1 109,66.2 			"/>
			<polygon class="st22" points="108.9,67.1 120.7,72 120.8,71.3 109,66.2 			"/>
			<polygon class="st22" points="120.8,71.3 160.3,69.5 159.3,70.3 120.7,72 			"/>
			<polygon class="st22" points="167.6,63.3 167.5,64.5 181.3,71.6 182.1,71.1 180.5,70.3 			"/>
			<polygon class="st22" points="159.3,70.3 159.3,71.5 161.5,69.4 161.6,68.4 			"/>
			<polygon class="st22" points="167.5,64.5 161.5,69.4 161.6,68.4 167.6,63.3 			"/>
			<path class="st9" d="M163.1,101.9l2.4-29.5c0,0,0.5-1.7,2.6-1.6c0,0,2.3,0.4,2.2,1.9c0,0.1-1.5,30-1.5,30
				S166.7,100.4,163.1,101.9"/>
			<path class="st9" d="M174.2,76.5c0,0,0.7-1.5,2.5-1.3c0,0,1.8,0.1,2.3,1.6c0,0-2,29.8-2,29.8s-2-2.3-5.2-0.6
				C171.8,105.9,174.2,76.5,174.2,76.5"/>
			<path class="st9" d="M107,74.6c0,0,0.7-1.3,2.3-1.1c0,0,1.7-0.1,2.5,1.6c0,0-2.2,29.6-2.2,29.6s-1.9-1.9-5.1-0.6
				C104.5,103.9,107,74.6,107,74.6"/>
			<polygon class="st13" points="104.5,71.5 104.5,72.3 108.9,68 108.9,67.1 			"/>
			<polygon class="st14" points="114.8,70.5 114.8,69.5 108.9,67.1 108.9,68 			"/>
			<polygon class="st17" points="181.3,71.6 181.2,72.8 176.1,70.3 176.2,69 			"/>
			<polygon class="st9" points="176.1,70.3 172.7,72.9 172.7,71.6 176.2,69 			"/>
			<polygon class="st17" points="173.3,67.5 173.3,68.8 167.4,65.8 167.5,64.5 			"/>
			<polygon class="st14" points="167.4,65.8 163.3,69.2 163.4,67.9 167.5,64.5 			"/>
			<polygon class="st22" points="114.8,70.5 120.6,73 120.7,72 114.8,69.5 			"/>
			<polygon class="st22" points="120.7,72 159.3,70.3 159.3,71.5 120.6,73 			"/>
			<polygon class="st13" points="184.8,115 198.5,169.4 200.8,168.4 186.7,111.6 			"/>
			<polygon class="st2" points="112.5,110.3 158.3,109 158.6,111.4 112.3,112.9 			"/>
			<path class="st13" d="M110.7,106.3c-0.1,1.4-1.9,2.5-4.1,2.3c-2.2-0.1-3.8-1.4-3.7-2.9c0.1-1.4,1.9-2.5,4.1-2.3
				C109.1,103.6,110.8,104.8,110.7,106.3"/>
			<polygon class="st14" points="105.4,107.9 105.6,104.5 111.8,107.3 111.6,110.7 			"/>
			<polygon class="st22" points="104.7,109.7 112.3,112.9 112.2,115.1 104.7,115.4 			"/>
			<path class="st13" d="M104.6,110.8c-0.1,1.1-1.6,2-3.4,1.8c-1.8-0.1-3.3-1.1-3.2-2.3c0.1-1.1,1.6-2,3.4-1.8
				C103.2,108.6,104.6,109.7,104.6,110.8"/>
			<polygon class="st17" points="96.8,113.6 96.9,112.2 100.5,109 100.4,110.9 			"/>
			<polygon class="st14" points="100.5,109 102.2,109.6 101,110.7 100.5,110.5 			"/>
			<polygon class="st17" points="105.6,104.5 101.8,108 101.6,110.1 105.4,107.9 			"/>
			<polygon class="st13" points="94.3,115.3 104.5,106.9 104.7,109.7 98.9,114.6 			"/>
			<polygon class="st2" points="104.5,106.9 112.5,110.3 112.3,112.9 104.7,109.7 			"/>
			<path class="st13" d="M169.6,104.1c-0.1,1.4-1.9,2.4-4.1,2.3c-2.2-0.1-3.9-1.4-3.8-2.8c0.1-1.4,1.9-2.4,4.1-2.3
				C168,101.4,169.7,102.7,169.6,104.1"/>
			<polygon class="st14" points="159.9,108.3 160,105.6 164.8,102.2 164.6,105.8 			"/>
			<polygon class="st17" points="164.2,107.7 175.4,112.8 164.3,112.4 			"/>
			<polygon class="st22" points="158.6,111.4 164.2,107.7 164.3,113.9 158.5,112.7 			"/>
			<polygon class="st2" points="158.3,109 163.8,104.9 164.2,107.7 158.6,111.4 			"/>
			<path class="st13" d="M178,108.1c-0.1,1.4-1.9,2.4-3.9,2.3c-2.1-0.1-3.7-1.4-3.6-2.8c0.1-1.4,1.8-2.4,3.9-2.3
				C176.4,105.5,178.1,106.7,178,108.1"/>
			<polygon class="st9" points="173.4,106.6 169.9,108.4 173.2,110 			"/>
			<polygon class="st17" points="173.4,106.6 173.2,109.8 179.3,112.4 179.5,109.2 			"/>
			<polygon class="st17" points="164.8,102.2 170.9,105.2 170.7,108.7 164.6,105.9 			"/>
			<polygon class="st13" points="163.8,104.9 180.5,112.8 173.6,112.1 164.2,107.7 			"/>
			<polygon class="st2" points="117.4,71.6 117.3,73.4 120.5,74.9 120.6,73 			"/>
			<polygon class="st13" points="117.3,73.4 114.8,75.6 114.9,73.8 117.4,71.6 			"/>
			<polygon class="st17" points="117.3,73.4 117.5,75.4 120,76.4 120.5,74.9 			"/>
			<polygon class="st15" points="117.3,73.4 114.8,75.6 115.1,77 117.5,75.4 			"/>
			<polygon class="st2" points="159.3,71.5 159.1,73.4 161.4,71.8 161.5,69.4 			"/>
			<polygon class="st17" points="159.1,73.4 159.4,75.7 161.7,74.2 161.4,71.8 			"/>
			<polygon class="st17" points="186.4,90.5 198.7,96.8 196.3,100 185.1,93.9 			"/>
			<polygon class="st11" points="181.5,96.3 189.5,100.5 189.2,105.7 196.3,100 185.1,93.9 			"/>
			<polygon class="st13" points="181.5,96.3 181.2,101.9 189.2,105.7 189.5,100.5 			"/>
			<polygon class="st15" points="189.2,105.7 189.1,106.9 181.1,103.1 181.2,101.9 			"/>
			<polygon class="st17" points="77.8,118.4 78.8,120.1 183.9,116.9 184.8,115 			"/>
			<polygon class="st19" points="183.9,116.9 197.2,170.5 198.5,169.4 184.8,115 			"/>
			<polygon class="st17" points="89.3,131.4 176.6,129.1 176.3,133.1 89.1,135.1 			"/>
			<polygon class="st2" points="89.1,135.1 176.3,133.1 177.5,133.2 175.9,140.3 88.6,142.3 86.8,135.2 			"/>
			<polygon class="st13" points="177.5,133.2 191.2,178.3 188.6,182 175.9,140.3 			"/>
			<polygon class="st13" points="176.6,129.1 189.7,172.3 189.4,172.5 177.5,133.2 176.3,133.1 			"/>
			<polygon class="st13" points="89.3,131.4 85.7,124.6 179.9,122.1 176.6,129.1 			"/>
			<polygon class="st15" points="179.9,122.1 193.8,171.7 189.7,172.3 176.6,129.1 			"/>
			<polygon class="st15" points="86.8,135.2 78.8,120.1 183.9,116.9 179.9,122.1 85.7,124.6 89.3,131.4 89.1,135.1 			"/>
			<polygon class="st11" points="183.9,116.9 197.2,170.5 193.4,170.5 179.9,122.1 			"/>
			<polygon class="st14" points="100.9,152.1 156.3,150.6 156.2,152.2 101.1,153.3 			"/>
			<polygon class="st11" points="156.3,150.6 158.4,154.9 159.5,153.2 157.4,148.5 			"/>
			<polygon class="st19" points="156.3,150.6 158.4,154.9 158.3,156.4 156.2,152.2 			"/>
			<polygon class="st17" points="156.2,152.2 154.5,153.6 102.4,154.4 101.1,153.3 			"/>
			<polygon class="st11" points="154.5,153.6 155.9,156.2 158.3,156.4 156.2,152.2 			"/>
			<polygon class="st19" points="154.5,153.6 152.1,158.3 153.3,160.6 155.9,156.2 			"/>
			<polygon class="st15" points="152.1,158.3 105.8,158.6 102.4,154.4 154.5,153.6 			"/>
			<polygon class="st2" points="152.1,158.3 105.8,158.6 105.5,163.2 152,162.8 			"/>
			<polygon class="st9" points="104.9,163.2 152.7,162.7 152.7,163.4 104.9,163.9 			"/>
			<polygon class="st11" points="152.7,162.7 153.6,164.4 153.5,165 152.7,163.4 			"/>
			<polygon class="st11" points="152.7,163.4 151.9,164.7 105.9,165.1 104.9,163.9 			"/>
			<polygon class="st15" points="152,162.8 152.7,162.7 153.1,163.4 153.3,160.6 152.1,158.3 			"/>
			<polygon class="st8" points="153.5,165 152.6,165.6 151.9,164.7 152.7,163.4 			"/>
			<polygon class="st17" points="105.9,165.1 105.8,167 151.8,166.5 151.9,164.7 			"/>
			<polygon class="st17" points="86.8,215 98,207.8 98.2,209.4 87.3,216.5 			"/>
			<polygon class="st9" points="98,207.8 142.1,207.8 142,209.8 98.2,209.4 			"/>
			<polygon class="st15" points="87.3,216.5 88.7,217.5 99.3,211.1 98.2,209.4 			"/>
			<polygon class="st13" points="98.2,209.4 142,209.8 141.8,211.3 99.3,211.1 			"/>
			<polygon class="st11" points="152.3,166.5 152.7,166.8 152.7,167.5 152.2,167.2 			"/>
			<polygon class="st19" points="152.6,165.6 152.5,166.6 152.3,166.5 151.8,166.5 151.9,164.7 			"/>
			<polygon class="st11" points="149.1,206.3 149.8,207 150.5,207 150,205.7 			"/>
			<polygon class="st15" points="105.8,167 152.3,166.5 152.2,167.2 104.8,167.7 104.7,167 			"/>
			<polygon class="st8" points="104.8,167.7 105.9,167.9 151.7,167.5 152.2,167.2 			"/>
			<polygon class="st8" points="151.7,167.5 152.5,167.9 152.7,167.5 152.2,167.2 			"/>
			<polygon class="st20" points="110.5,198.2 111.2,199.5 110.8,206.1 110,205.1 			"/>
			<polygon class="st11" points="109.3,205.5 110.3,206.1 110.8,206.1 110,205.1 			"/>
			<polygon class="st13" points="142,209.8 161.6,217.1 162.5,215.2 142.1,207.8 			"/>
			<polygon class="st15" points="141.8,211.3 160.6,218.4 161.6,217.1 142,209.8 			"/>
			<path class="st25" d="M143.5,175.7l0,0.3c0,0-2.7,1.6-4,3.5c0,0-0.1-0.1-0.1-0.1S141,176.3,143.5,175.7"/>
			<path class="st2" d="M138,178c0,0,0.5-2.7,3.5-4.8c0,0,1.1,0.7,2,2.4c0,0-2.6,1.5-4,3.7C139.4,179.3,138.6,179,138,178"/>
			<path class="st25" d="M130.4,168.6l0.1,0.2c0,0-0.8,4,0.3,6.4l-0.9-0.7l-0.9-4.2L130.4,168.6z"/>
			<path class="st2" d="M127.3,168.7c0,0,1.8-0.4,3.1,0c0,0-0.9,4,0.3,6.5c0,0-0.9,0.1-2.5,0C128.3,175.2,127.4,173,127.3,168.7"/>
			<path class="st25" d="M113.5,176l0.1,0.4c0,0,3,1.6,4.8,4.1c0,0,0.1-0.1,0.1-0.1l-0.1-1.5l-3.2-3.1L113.5,176z"/>
			<path class="st2" d="M113.5,176c0,0,1.2-1.4,2.6-2.3c0,0,2,1.4,3.8,5.2c-0.1,0.1-0.6,1-1.4,1.6
				C118.5,180.5,117.6,178.7,113.5,176"/>
			<path class="st25" d="M111.4,190.4l0.2,0.2c0,0,2.3-0.1,3.7,1.4l0-0.1l-1.9-2.3l-1.7,0.3L111.4,190.4z"/>
			<path class="st2" d="M111.6,187.9c0,0,3.4-0.1,3.9,1.8c0,0,0.1,0.9-0.1,2.1c0,0-1.2-1.6-3.9-1.5
				C111.4,190.4,111.6,187.9,111.6,187.9"/>
			<path class="st25" d="M111.2,200.1l0,0.2c0,0,1.7-0.3,3.5,1.4l0-0.2l-2.4-2.2L111.2,200.1z"/>
			<path class="st2" d="M111.4,197.6c0,0,3.2,0.3,3.4,2c0,0,0.1,1.4-0.1,2c0,0-1.1-1.5-3.5-1.5l0-0.6l-0.4-0.8l0.1-0.7l0.5,0
				L111.4,197.6z"/>
			<polygon class="st11" points="119.3,151.6 129.8,147.7 139.6,151.1 			"/>
			<polygon class="st15" points="129.2,137.1 129.4,140.1 156.3,150.6 157.4,148.5 			"/>
			<polygon class="st13" points="129.2,137.1 99.4,149.7 100.9,152.1 129,140 129.4,140.1 			"/>
			<polygon class="st17" points="119.3,151.6 129.8,147.7 129.7,146.2 115.6,151.7 			"/>
			<polygon class="st19" points="129.9,146.1 129.7,146.2 129.8,147.7 139.6,151.1 143.2,151 			"/>
			<polygon class="st2" points="129.4,139.9 129,140 100.9,152.1 104.1,152 128.9,141.6 129.5,141.4 			"/>
			<polygon class="st14" points="129.5,141.4 128.9,141.6 104.1,152 108.7,151.9 129.3,143.5 129.6,143.4 			"/>
			<polygon class="st17" points="129.5,141.4 152.5,150.7 156.3,150.6 129.4,139.9 			"/>
			<polygon class="st9" points="129.6,143.4 149.1,150.8 152.5,150.7 129.5,141.4 			"/>
			<polygon class="st13" points="129.3,143.5 108.7,151.9 115.6,151.7 129.7,146.2 129.6,143.4 			"/>
			<polygon class="st15" points="129.6,143.4 129.7,146.2 143.2,151 149.1,150.8 			"/>
			<polygon class="st4" points="78.8,225.1 91.8,217.1 91.7,217.7 78.8,225.8 			"/>
			<polygon class="st21" points="78.8,225.1 69.6,224.8 69.6,225.6 78.8,225.8 			"/>
			<polygon class="st21" points="91.8,217.1 142.2,217.2 142.2,217.8 91.7,217.7 			"/>
			<polygon class="st16" points="142.2,217.2 166.6,225.1 166.5,225.8 142.2,217.8 			"/>
			<polygon class="st21" points="166.6,225.1 176.4,225.1 176.4,225.7 166.5,225.8 			"/>
			<polygon class="st17" points="69.6,225.6 71.7,228.5 80.2,228.6 78.8,225.8 			"/>
			<polygon class="st13" points="78.8,225.8 91.7,217.7 92.8,221 80.2,228.6 			"/>
			<polygon class="st17" points="91.7,217.7 142.2,217.8 141.5,221 92.8,221 			"/>
			<polygon class="st15" points="142.2,217.8 166.5,225.8 165.5,228.7 141.5,221 			"/>
			<polygon class="st17" points="166.5,225.8 176.4,225.7 174.5,228.9 165.5,228.7 			"/>
			<polygon class="st13" points="162.5,215.2 163.2,216.7 163,218.6 161.6,217.1 			"/>
			<polygon class="st17" points="163.2,216.7 171,216.8 170.8,218.8 163,218.6 			"/>
			<polygon class="st9" points="87.3,216.3 80.1,215.8 80.1,217 88.7,217.5 87.3,216.5 			"/>
			
				<rect x="84" y="213.8" transform="matrix(6.541223e-02 -0.9979 0.9979 6.541223e-02 -138.3159 288.0159)" class="st13" width="1.2" height="8.1"/>
			<polygon class="st19" points="80.5,218.2 82.6,220.2 86.5,220.4 88.4,219.2 87.8,218.7 			"/>
			<polygon class="st9" points="99.3,211.1 98.9,217.1 141.4,217.2 141.8,211.3 			"/>
			<polygon class="st2" points="71.7,228.5 71.6,230.2 80.1,230.3 80.2,228.6 			"/>
			<polygon class="st18" points="80.2,228.6 92.8,221 93,222.5 80.1,230.3 			"/>
			<polygon class="st14" points="92.8,221 141.5,221 141.4,222.6 93,222.5 			"/>
			<polygon class="st16" points="141.5,221 165.5,228.7 165.4,230.2 141.4,222.6 			"/>
			<polygon class="st21" points="165.5,228.7 174.5,228.9 174.4,230.4 165.4,230.2 			"/>
			<polygon class="st17" points="93,222.5 97.7,230.5 140.1,230.6 141.4,222.6 			"/>
			<polygon class="st13" points="93,222.5 80.1,230.3 87.5,236.4 97.7,230.5 			"/>
			<polygon class="st15" points="141.4,222.6 165.4,230.2 159,237.1 140.1,230.6 			"/>
			<polygon class="st15" points="171,216.8 172.2,218.7 172,221.1 170.8,218.8 			"/>
			<polygon class="st19" points="161.6,217.1 163,218.6 162.2,219.5 160.6,218.4 			"/>
			<polygon class="st19" points="162.2,219.5 169.2,220 170,220.9 172,221.1 170.8,218.8 163,218.6 			"/>
			<polygon class="st15" points="162.2,219.5 161.9,223.6 160.3,223 160.6,218.4 			"/>
			<polygon class="st9" points="162.2,219.5 169.2,220 168.9,225.1 166.6,225.1 161.9,223.6 			"/>
			<polygon class="st17" points="169.2,220 170,220.9 169.7,225.1 168.9,225.1 			"/>
			<polygon class="st20" points="176.4,225.7 178.8,231.1 176.5,232.6 174.5,228.9 			"/>
			<polygon class="st26" points="174.5,228.9 176.5,232.6 176.4,234.3 174.4,230.4 			"/>
			<polygon class="st19" points="163,232.9 172.9,233 173.8,234.2 176.4,234.3 174.4,230.4 165.4,230.2 			"/>
			<polygon class="st20" points="173.8,234.2 168.7,239.7 168,238.5 172.9,233 			"/>
			<polygon class="st13" points="168,238.5 159.9,238.2 159,237.1 163,232.9 172.9,233 			"/>
			<polygon class="st13" points="71.6,230.2 74.5,232.7 83.3,233 80.1,230.3 			"/>
			<polygon class="st15" points="77,232.8 76.8,236.2 87.5,236.4 83.3,233 			"/>
			<polygon class="st19" points="76.8,236.2 80.9,237.8 87.3,238.2 87.5,236.4 			"/>
			<polygon class="st16" points="85.1,244.1 96.6,237.9 96.5,239.2 85,245.2 			"/>
			<polygon class="st10" points="96.6,237.9 139.6,238.3 139.5,239.5 96.5,239.2 			"/>
			<polygon class="st2" points="139.6,238.3 159.2,244.6 159.1,245.8 139.5,239.5 			"/>
			<polygon class="st17" points="87.5,236.4 87.3,238.2 87,243.1 96.6,237.9 97.5,237.9 97.7,230.5 			"/>
			<polygon class="st9" points="97.7,230.5 140.1,230.6 139.2,238.3 97.5,237.9 			"/>
			<polygon class="st17" points="140.1,230.6 159,237.1 158.9,244.5 139.6,238.3 139.2,238.3 			"/>
			<polygon class="st12" points="168,238.5 167.7,245.9 168.4,245.9 168.7,239.7 			"/>
			<polygon class="st12" points="159.2,244.6 160.2,245.9 160.1,247 159.1,245.8 			"/>
			<polygon class="st2" points="160.2,245.9 168.4,245.9 168.4,246.9 160.1,247 			"/>
			<polygon class="st2" points="159.9,238.2 168,238.5 167.7,245.9 160.2,245.9 159.2,244.6 			"/>
			<polygon class="st17" points="96.5,239.2 97,246 138.7,246.4 139.5,239.5 			"/>
			<polygon class="st15" points="139.5,239.5 159.1,245.8 157.7,252 138.7,246.4 			"/>
			<polygon class="st25" points="157.7,252 158.7,253.3 160.1,247 159.1,245.8 			"/>
			<polygon class="st13" points="96.5,239.2 85,245.2 86.5,251.1 97,246 			"/>
			<polygon class="st25" points="159.9,238.2 159.2,244.6 158.6,244.4 159,237.1 			"/>
			<polygon class="st13" points="82.6,220.2 82.4,222.9 86.5,220.4 			"/>
			<polygon class="st13" points="168.4,245.9 169.4,247.3 169.3,248.2 168.4,246.9 			"/>
			<polygon class="st19" points="168.4,246.9 167.9,247.6 159.9,247.7 160.1,247 			"/>
			<polygon class="st13" points="167.9,247.6 167,253.7 158.7,253.3 159.9,247.7 			"/>
			<polygon class="st11" points="167.9,247.6 168.5,248.8 169.3,248.2 168.4,246.9 			"/>
			<polygon class="st19" points="168.5,248.8 167.9,254.7 167,253.7 167.9,247.6 			"/>
			<polygon class="st16" points="85,245.2 78.4,244.9 78.4,246.1 85.3,246.4 			"/>
			<polygon class="st19" points="78.4,246.1 79.2,247.2 85.6,247.6 85.3,246.4 			"/>
			<polygon class="st13" points="79.2,247.2 79.7,252.4 85.7,252.8 86.4,252.8 86.5,251.1 85.6,247.6 			"/>
			<polygon class="st20" points="158.7,253.3 156.6,284.2 155.6,284.1 157.7,252 			"/>
			<polygon class="st3" points="193.8,212.3 196.5,213.1 196.2,216.6 192.8,216.6 			"/>
			<polygon class="st8" points="194.1,213.3 195.9,213.9 198.5,214.5 200.1,214.3 200.7,213.4 203.3,213.9 203.7,214.6 207.6,215.1 
				212,214.2 212.2,215 213.7,214.6 216.8,215.4 219.6,215 220.4,205.6 207.1,200.7 194.2,203.9 			"/>
			<path class="st3" d="M206.5,227.3l0-3l-0.2,0l0.1-2.2c0,0,0,0,0,0c0,0,0.5-0.5,0.5-0.5l0-3l-0.3,0l0.5-11.8l-2.4,3.6l-0.9,8.1
				l-0.5,0l-0.5,3l0.6,0.6l-0.2,2.2l-0.3,0l-0.5,3l0.4,0.4l-0.3,2.9l3.5,0.2l0.1-3h0C206.1,227.7,206.5,227.3,206.5,227.3"/>
			<path class="st3" d="M215.4,230.5l-0.2-3l-0.2,0l0-2.2c0,0,0,0,0,0c0,0,0.5-0.6,0.5-0.6l-0.2-3l-0.3,0l0-11.8l-2.3,3.7l-0.5,8.1
				l-0.5,0l-0.3,3l0.6,0.6l-0.1,2.2l-0.3,0l-0.3,3l0.4,0.4l-0.2,3l3.5,0.1l0-3l0,0C215.1,230.9,215.4,230.5,215.4,230.5"/>
			<polygon class="st9" points="192.2,208.7 189.6,233.2 193.9,233.4 195.2,204.4 			"/>
			<polygon class="st10" points="190.6,218.4 194.9,218.7 194.9,222.4 190,222.1 			"/>
			<polygon class="st10" points="190.1,225.4 194.5,225.7 194.5,229.4 189.6,229.1 			"/>
			<path class="st11" d="M190,222.1l0.7,0.7c0,0,1.8-0.8,3.6,0.2c0,0,0.6-0.7,0.6-0.7L190,222.1z"/>
			<path class="st11" d="M189.6,229.1l0.4,0.5c0,0,2.1-0.5,4,0.3c0,0,0.4-0.5,0.4-0.5L189.6,229.1z"/>
			<polygon class="st9" points="219.3,206 216.3,234.9 220.5,235.2 221.6,210.6 			"/>
			<polygon class="st10" points="217.3,220.2 221.6,220.4 221.6,224.1 216.7,223.8 			"/>
			<polygon class="st10" points="216.8,227.2 221.1,227.5 221.2,231.2 216.2,230.8 			"/>
			<path class="st12" d="M216.7,223.8l0.7,0.7c0,0,1.8-0.8,3.6,0.2c0,0,0.6-0.7,0.6-0.7L216.7,223.8z"/>
			<path class="st12" d="M216.2,230.8l0.4,0.5c0,0,2.1-0.5,4,0.3c0,0,0.4-0.5,0.4-0.5L216.2,230.8z"/>
			<polygon class="st9" points="215.7,204 212.9,231.5 217.5,231.8 218.5,206.5 			"/>
			<polygon class="st9" points="196.4,205.1 193.8,230.3 198.4,230.6 199.6,203.5 			"/>
			<polygon class="st9" points="206.5,202 203.7,228.9 208,229.1 209.2,202.5 			"/>
			<polygon class="st10" points="204.7,214.1 209,214.4 209,218.1 204.1,217.7 			"/>
			<polygon class="st10" points="204.2,221.1 208.6,221.4 208.6,225.1 203.7,224.8 			"/>
			<path class="st11" d="M204.1,217.7l0.7,0.7c0,0,1.8-0.8,3.6,0.2c0,0,0.6-0.7,0.6-0.7L204.1,217.7z"/>
			<path class="st11" d="M203.7,224.8l0.4,0.5c0,0,2.1-0.5,4,0.3c0,0,0.4-0.5,0.4-0.5L203.7,224.8z"/>
			<path class="st13" d="M214.6,179.4c0,0,9.9,5,8,19.1c0-0.1-9.4-7.1-9.4-7.1L214.6,179.4z"/>
			<path class="st9" d="M203.5,178.9c0,0-8.2,2.4-11.2,14c0.1-0.3,6.1,1.3,6.1,1.3L203.5,178.9z"/>
			<path class="st9" d="M208.6,178.1l5.9,1.4c0,0,6.7,2.4,4.2,15.5c0,0.2-11.7-2.9-11.7-2.9L208.6,178.1z"/>
			<path class="st10" d="M195.8,192.2c0,0,1-14.7,12.9-14.1c0.1,0.1,0.9,7.4-0.2,13.8C208.4,191.9,195.8,192.2,195.8,192.2"/>
			<polygon class="st9" points="206.1,191.8 206.2,190.5 215.6,188.9 224.1,195.2 224,196.4 			"/>
			<polygon class="st12" points="208.8,191.3 215.3,190.2 221.4,194.7 			"/>
			<polygon class="st13" points="206.2,190.5 204.5,191.6 204.4,192.9 206.1,191.8 			"/>
			<polygon class="st14" points="204.5,191.6 198.6,192 198.5,193.6 204.4,192.9 			"/>
			<polygon class="st13" points="198.6,192 196,191.4 195.9,193 198.5,193.6 			"/>
			<polygon class="st9" points="196,191.4 192,191.1 187.5,198.7 188.4,199.8 196.2,193.1 			"/>
			<polygon class="st12" points="189.5,197.5 192.4,192.6 195,192.8 			"/>
			<polygon class="st13" points="188.4,199.8 190.6,200.4 196.9,194.9 196.2,193.1 			"/>
			<polygon class="st15" points="196.9,194.9 198.4,195 198.5,193.6 196.2,193.1 			"/>
			<polygon class="st15" points="204.4,192.9 204.6,194.3 206.6,193.3 206.1,191.8 			"/>
			<polygon class="st9" points="198.5,193.6 204.4,192.9 204.6,194.3 198.4,195 			"/>
			<polygon class="st13" points="224,196.4 222.2,197.3 206.6,193.3 206.1,191.8 			"/>
			<polygon class="st13" points="196.9,194.9 197.4,197.3 198.3,197.3 198.4,195 			"/>
			<polygon class="st9" points="190.6,200.4 191.5,201.7 197.4,197.3 196.9,194.9 			"/>
			<polygon class="st13" points="204.6,194.3 205.3,196 207.1,195.6 206.6,193.3 			"/>
			<polygon class="st2" points="222.2,197.3 219.7,198.5 207.1,195.6 206.6,193.3 			"/>
			<polygon class="st2" points="198.3,197.3 205.3,196 204.6,194.3 198.4,195 			"/>
			<polygon class="st13" points="198.3,197.3 198,200.7 197.3,200.3 197.4,197.3 			"/>
			<polygon class="st16" points="197.4,197.3 191.5,201.7 191.3,204.7 197.3,200.3 			"/>
			<polygon class="st14" points="198,200.7 198.3,197.3 205.3,196 205.1,199.5 			"/>
			<polygon class="st17" points="205.3,196 207.1,195.6 206.9,199.2 205.1,199.5 			"/>
			<polygon class="st9" points="207.1,195.6 219.7,198.5 219.4,202.3 206.9,199.2 			"/>
			<polygon class="st9" points="191.3,204.7 190.6,208.8 197.1,203.9 197.3,200.3 			"/>
			<polygon class="st13" points="197.3,200.3 198,200.7 197.8,203.8 197.1,203.9 			"/>
			<polygon class="st18" points="198,200.7 205.1,199.5 204.9,203.1 197.8,203.8 			"/>
			<polygon class="st17" points="204.9,203.1 206.7,202.4 206.9,199.2 205.1,199.5 			"/>
			<polygon class="st9" points="206.9,199.2 219.4,202.3 219.2,205.6 206.7,202.4 			"/>
			<polygon class="st13" points="187.5,198.7 186.7,198.6 191.8,190.5 192,191.1 			"/>
			<polygon class="st14" points="191.8,190.5 196.1,190.7 196,191.4 192,191.1 			"/>
			<polygon class="st15" points="196.1,190.7 198.7,191.4 198.6,192 196,191.4 			"/>
			<polygon class="st15" points="204.5,191.6 204.2,190.8 205.9,189.6 206.2,190.5 			"/>
			<polygon class="st14" points="205.9,189.6 215.9,187.8 225.1,194.5 224.1,195.2 215.6,188.9 206.2,190.5 			"/>
			<polygon class="st9" points="198.7,191.4 204.2,190.8 204.5,191.6 198.6,192 			"/>
			<polygon class="st15" points="224,195.8 225.5,198.2 228.1,198.6 226.8,200 224.7,199.7 222.5,197.2 224,196.4 			"/>
			<polygon class="st19" points="226.8,200 226.8,200.9 224.3,200.5 221.8,197.5 222.5,197.2 224.7,199.7 			"/>
			<polygon class="st13" points="226.8,200.9 222.7,203.8 219.7,198.5 221.8,197.5 224.3,200.5 			"/>
			<polygon class="st17" points="219.2,205.6 222.2,210.3 222.7,203.8 219.7,198.5 			"/>
			<polygon class="st10" points="213,217.2 216.5,216.3 216.3,219.6 212.8,220.6 			"/>
			<polygon class="st17" points="216.5,216.3 219.2,217.6 219,221 216.3,219.6 			"/>
			<polygon class="st10" points="212.5,224.3 216,223.3 215.8,226.7 212.3,227.6 			"/>
			<polygon class="st17" points="216,223.3 218.7,224.7 218.5,228 215.8,226.7 			"/>
			<path class="st11" d="M212.8,220.6l1.1,0.4c0,0,1.7-1.6,4,0.1c0,0.1,1-0.1,1-0.1l-2.7-1.4L212.8,220.6z"/>
			<path class="st11" d="M212.3,227.6l0.9,0.4c0,0,2.4-1.4,4.5,0.3l0.8-0.3l-2.7-1.4L212.3,227.6z"/>
			<polygon class="st10" points="193.9,216 197.4,215 197.2,218.4 193.7,219.3 			"/>
			<polygon class="st17" points="197.4,215 200.1,216.4 199.9,219.7 197.2,218.4 			"/>
			<polygon class="st10" points="193.5,223 197,222.1 196.8,225.4 193.3,226.4 			"/>
			<polygon class="st17" points="197,222.1 199.7,223.4 199.4,226.8 196.8,225.4 			"/>
			<path class="st11" d="M193.7,219.3l1.1,0.4c0,0,1.7-1.6,4,0.1c0,0.1,1-0.1,1-0.1l-2.7-1.4L193.7,219.3z"/>
			<path class="st11" d="M193.3,226.4l0.9,0.4c0,0,2.4-1.4,4.5,0.3l0.8-0.3l-2.7-1.4L193.3,226.4z"/>
			<polygon class="st19" points="190.6,208.8 191.9,209.4 197.8,204.8 197.1,203.9 			"/>
			<polygon class="st11" points="197.8,203.8 198.1,204.6 197.8,204.8 197.1,203.9 			"/>
			<polygon class="st15" points="197.8,203.8 204.9,203.1 205,203.9 198.1,204.6 			"/>
			<polygon class="st13" points="204.9,203.1 206.7,202.4 206.9,203.2 205,203.9 			"/>
			<polygon class="st19" points="206.7,202.4 219.2,205.6 217.8,206.3 206.9,203.2 			"/>
			<polygon class="st11" points="219.2,205.6 222.2,210.3 221.3,211.3 217.8,206.3 			"/>
			<polygon class="st17" points="189.1,231.1 192.3,228.6 193,231.6 190.2,233.5 			"/>
			<polygon class="st2" points="192.3,228.6 206.3,227.7 206.2,230.3 193,231.6 			"/>
			<polygon class="st13" points="206.3,227.7 219.6,230.7 218.3,233.2 206.2,230.3 			"/>
			<polygon class="st19" points="219.6,230.7 224,236 222.4,237.7 218.3,233.2 			"/>
			<polygon class="st2" points="190.2,233.5 193,231.6 191.1,260.9 188.4,260.7 			"/>
			<polygon class="st15" points="222.9,234.7 224,236 222.4,237.7 273,249.2 273.4,246.5 			"/>
			<polygon class="st2" points="222.4,237.7 273,249.2 271.7,269.5 220.7,262.9 			"/>
			<polygon class="st13" points="232.8,235.8 236.4,233.6 247.2,235.9 245.7,237.4 236.4,235.4 234.8,236.3 			"/>
			<polygon class="st2" points="245.7,237.4 245.6,238.1 236.4,236 236.4,235.4 			"/>
			<polygon class="st23" points="236.4,236 235.6,236.4 234.8,236.3 236.4,235.4 			"/>
			<polygon class="st9" points="237.7,233.9 237.7,232.7 243,233.9 242.9,235 			"/>
			<path class="st15" d="M237.7,232.7c-0.1,0.2-1,1-1,1l1,0.2L237.7,232.7z"/>
			<polygon class="st15" points="245.6,238.1 244.7,238.5 236.3,236.6 236.4,236 			"/>
			<polygon class="st19" points="236.4,236 235.6,236.4 236.3,236.6 			"/>
			<polygon class="st15" points="69.7,231.2 66.9,228.4 65.8,231.2 68.4,233.5 			"/>
			<polygon class="st2" points="66.9,228.4 53.1,225.6 52.9,228.2 65.8,231.2 			"/>
			<polygon class="st13" points="53.1,225.6 39.6,226.8 40.5,229.5 52.9,228.2 			"/>
			<polygon class="st15" points="39.6,226.8 34.5,231.6 35.9,233.4 40.5,229.5 			"/>
			<polygon class="st13" points="68.4,233.5 65.8,231.2 64.7,247.9 67.4,248.2 			"/>
			<polygon class="st9" points="65.8,231.2 52.9,228.2 51.9,244.1 64.7,247.9 			"/>
			<polygon class="st17" points="52.9,228.2 40.5,229.5 39.6,243.3 51.9,244.1 			"/>
			<polygon class="st13" points="40.5,229.5 35.9,233.4 35.3,243 39.6,243.3 			"/>
			<path class="st9" d="M169.8,210.2c0,0,2.8-0.6,3.5,2.8c-0.1,0,5.1,17.9,15.9,18.1c0-0.1,1,2.5,1,2.5s-12.6,1.5-18.5-20.1
				c0,0.1-0.7-1.3-2-1.2C169.6,212.1,169.8,210.2,169.8,210.2"/>
			<path class="st20" d="M171.7,212.9c0,0.1-0.7-1.3-2-1.2c0,0,0-0.1,0-0.3c0,0.4-0.1,0.8,0,0.9c1.3-0.1,2,1.4,2,1.2
				c5.9,21.6,18.5,20.1,18.5,20.1s-0.1-0.2-0.2-0.6C188.1,233.1,177.1,232.7,171.7,212.9"/>
			<polygon class="st17" points="23.5,246.1 36.1,242 37.2,245.1 25.3,249.2 			"/>
			<polygon class="st9" points="36.1,242 58.8,244.2 57.6,246.7 37.2,245.1 			"/>
			<polygon class="st2" points="58.8,244.2 72.7,249.3 70.2,251.7 57.6,246.7 			"/>
			<polygon class="st15" points="25.3,249.2 32.4,256.4 40.7,253.6 37.2,245.1 			"/>
			<polygon class="st2" points="37.2,245.1 40.7,253.6 55.6,254.6 57.6,246.7 			"/>
			<polygon class="st17" points="57.6,246.7 70.2,251.7 62.6,257.4 55.6,254.6 			"/>
			<polygon class="st13" points="32.4,256.4 31.3,272.9 39.4,273.5 40.7,253.6 			"/>
			
				<rect x="37.6" y="256.5" transform="matrix(6.540406e-02 -0.9979 0.9979 6.540406e-02 -219.0329 294.1651)" class="st9" width="19.9" height="14.9"/>
			<polygon class="st2" points="55.6,254.6 62.6,257.4 61.4,274.9 54.3,274.4 			"/>
			<polygon class="st9" points="193,231.6 206.2,230.3 204.1,261.8 191.1,260.9 			"/>
			<polygon class="st2" points="206.2,230.3 218.3,233.2 216.4,262.6 204.1,261.8 			"/>
			<polygon class="st13" points="218.3,233.2 222.4,237.7 220.7,262.9 216.4,262.6 			"/>
			<polygon class="st17" points="98.4,115 104.7,109.7 104.7,115.4 			"/>
			<polygon class="st14" points="76.3,115.3 186.7,111.6 184.8,115 77.8,118.4 			"/>
			<path class="st8" d="M131.7,92.7c0-0.3,0.6-7.3,8-7.2l0.1,0c0.1,0,0.2,0,0.4,0c2,0.1,5.4,1,6.1,5.6c0.1,0.4,0.1,1.7,0,2.3
				c-0.2,3.2-1.1,13-1.3,15.3l-14.5,0.3L131.7,92.7z"/>
			<path class="st27" d="M140.2,86L140.2,86c1.8,0.1,5,1,5.7,5.2c0.1,0.3,0.1,1.6,0,2.2c-0.2,3.1-1,11.9-1.3,14.8l-13.5,0.3l1-15.8
				c0-0.3,0.6-6.8,7.5-6.7l0,0c0,0,0.1,0,0.1,0C139.9,86,140,86,140.2,86 M140.2,85c-0.3,0-0.5,0-0.5,0c0,0,0,0,0,0
				c-8-0.1-8.6,7.7-8.6,7.7l-1.1,17l15.5-0.4c0,0,1.1-12,1.4-15.7c0-0.7,0-2,0-2.4C146.1,85.8,141.8,85.1,140.2,85"/>
			<path class="st27" d="M145.6,98.8l0-1.4l-3.5,0.1l0.3-3.3l3.7,0l0-0.3l-3.6,0l0.3-4l3-0.1l0-0.3l-3,0.1l0.3-3.1l-0.3,0l-0.3,3.2
				l-3.3,0.1l0.3-4l-0.3,0l-0.3,4l-3.1,0.1l0.2-3.1l-0.3,0l-0.2,3.1l-3.1,0.1l0,0.3l3.1-0.1l-0.3,3.9l-3.6,0l0,0.3l3.6,0l-0.2,3.3
				l-3.7,0.1l0,1.4l3.1-0.1l-0.4,5.6l-3.4,0l0,0.3l3.4,0l-0.2,3.7l1.4,0.1l0.2-3.8l2.4,0l-0.3,4l0.3,0l0.3-4l2.9,0l-0.3,3.8l1.4,0.1
				l0.3-3.9l3,0l0-0.3l-2.9,0l0.4-5.7L145.6,98.8z M137.6,104.6l-2.4,0l0.4-5.6l2.4-0.1L137.6,104.6z M138.2,97.6l-3.1,0.1l0.2-3.3
				l3.1,0L138.2,97.6z M138.5,93.9l-3.1,0l0.3-3.9l3.1-0.1L138.5,93.9z M140.9,104.5l-2.9,0l0.4-5.6l2.9-0.1L140.9,104.5z
				 M141.7,97.5l-3.2,0.1l0.2-3.3l3.2,0L141.7,97.5z M142,93.9l-3.2,0l0.3-3.9l3.3-0.1L142,93.9z"/>
			<path class="st19" d="M101.9,287.6l2.1-31.4c0,0,0.4-2.9,4.6-3.7c0.1,0,8.4-2.3,19.3,0.3c0,0.1,3.3,1,3.5,3.4l-2.1,32
				L101.9,287.6z"/>
			<path class="st17" d="M103.2,287.7l2-29.8c0,0,0.3-2.8,4.4-3.5c0.1,0,8-2.1,18.4,0.3c0,0.1,3.2,0.9,3.4,3.2l-2,30.4L103.2,287.7z
				"/>
			<path class="st9" d="M105,287.8l1.8-27.8c0,0,0.3-2.6,4.1-3.3c0.1,0,7.5-2,17.1,0.3c0,0.1,3,0.9,3.1,3l-1.9,28.3L105,287.8z"/>
			<polygon class="st8" points="107.6,260.6 113.7,260.7 113.3,267.1 107.2,266.9 			"/>
			<path class="st27" d="M113.4,260.9l-0.4,5.9l-5.6-0.2l0.4-5.8L113.4,260.9z M114,260.4l-6.6-0.1l-0.4,6.8l6.6,0.2L114,260.4z"/>
			<polygon class="st8" points="107,269.3 113.1,269.6 111.9,287.8 105.8,287.6 			"/>
			<path class="st27" d="M112.8,269.8l-1.2,17.7l-5.6-0.1l1.2-17.8L112.8,269.8z M113.4,269.3l-6.6-0.2l-1.2,18.8l6.6,0.2
				L113.4,269.3z"/>
			<polygon class="st8" points="116.1,260.7 122.6,260.8 122.1,267.5 115.7,267.2 			"/>
			<path class="st27" d="M122.3,261.1l-0.4,6.1L116,267l0.4-6L122.3,261.1z M122.8,260.6l-7-0.1l-0.5,7l7,0.3L122.8,260.6z"/>
			<polygon class="st8" points="125,260.9 130.8,261 130.4,267.8 124.5,267.6 			"/>
			<path class="st27" d="M130.5,261.2l-0.4,6.3l-5.3-0.2l0.4-6.2L130.5,261.2z M131.1,260.7l-6.3-0.1l-0.5,7.2l6.3,0.2L131.1,260.7z
				"/>
			<polygon class="st8" points="115.5,269.6 122,269.9 120.8,288 114.3,287.8 			"/>
			<path class="st27" d="M121.7,270.1l-1.2,17.6l-5.9-0.2l1.2-17.7L121.7,270.1z M122.2,269.6l-7-0.3l-1.2,18.7l7,0.2L122.2,269.6z"
				/>
			<polygon class="st8" points="124.4,270 130.2,270.2 129,288.2 123.2,288.1 			"/>
			<path class="st27" d="M129.9,270.4l-1.1,17.5l-5.3-0.1l1.2-17.6L129.9,270.4z M130.5,269.9l-6.3-0.2l-1.2,18.6l6.3,0.2
				L130.5,269.9z"/>
			<path class="st2" d="M140.7,271.4l1.1-17c0,0,1.7-5.9,7-4.2c0.1,0.2,6.5,0.8,6.2,9.1l-1.9,29.2l-13.4-0.9L140.7,271.4z"/>
			<path class="st19" d="M140.6,272.5l1-15.7c0,0,1.5-5.4,6-4c0,0.2,5.5,0.7,5.1,8.4l-1.8,27.1l-11.3-0.7L140.6,272.5z"/>
			<path class="st9" d="M140.5,273.7l1-14.5c0,0,1.2-5,4.9-3.7c0,0.2,4.5,0.6,4.2,7.7l-1.6,25l-9.3-0.6L140.5,273.7z"/>
			<polygon class="st8" points="141.1,290 142.6,271 146,271.9 144.7,290.9 			"/>
			<path class="st27" d="M142.8,271.3l2.9,0.7l-1.2,18.5l-3.2-0.8L142.8,271.3z M142.3,270.7l-1.6,19.5l4.2,1l1.3-19.5L142.3,270.7z
				"/>
			<polygon class="st8" points="142.8,268.4 143.4,261 146.6,261.9 146.2,269.3 			"/>
			<path class="st27" d="M143.6,261.3l2.8,0.8l-0.5,6.9l-2.9-0.7L143.6,261.3z M143.1,260.6l-0.6,8l3.9,1l0.5-7.9L143.1,260.6z"/>
			<polygon class="st17" points="86.5,251.1 97,246 93.5,299.4 83.4,297.9 			"/>
			<polygon class="st17" points="167,253.7 165,284.4 165.9,284.5 167.9,254.7 			"/>
			<polygon class="st2" points="158.7,253.3 167,253.7 165,284.4 156.7,283.9 			"/>
			<polygon class="st2" points="79.7,252.4 86.4,252.8 84.9,274.7 78.2,274.1 			"/>
			<polygon class="st17" points="175.7,250.3 183.5,245.3 185,248.2 178.4,252.7 			"/>
			<polygon class="st2" points="183.5,245.3 205.1,243.7 204.9,247.1 185,248.2 			"/>
			<polygon class="st17" points="205.1,243.7 225.9,248.1 224.1,251.3 204.9,247.1 			"/>
			<polygon class="st13" points="225.9,248.1 231,254.1 228.5,257.1 224.1,251.3 			"/>
			<polygon class="st13" points="178.4,252.7 186,259 189.9,256.3 185,248.2 			"/>
			<polygon class="st17" points="185,248.2 204.9,247.1 204.3,256 189.9,256.3 			"/>
			<polygon class="st15" points="204.9,247.1 224.1,251.3 217.4,258.6 204.3,256 			"/>
			<polygon class="st19" points="217.4,258.6 224.1,251.3 228.5,257.1 221.8,263.3 			"/>
			<polygon class="st2" points="186,259 189.9,256.3 188.8,274.1 185,273.9 			"/>
			<polygon class="st9" points="189.9,256.3 204.3,256 203.1,275.1 188.8,274.1 			"/>
			<polygon class="st13" points="204.3,256 217.4,258.6 216.5,276 203.1,275.1 			"/>
			<polygon class="st11" points="217.4,258.6 221.8,263.3 221,276.3 216.5,276 			"/>
			<polygon class="st17" points="231,254.1 289.2,266.5 288.5,269.7 228.5,257.1 			"/>
			<polygon class="st2" points="228.5,257.1 221.8,263.3 288.5,276.9 288.5,269.7 			"/>
			<polygon class="st17" points="221.8,263.3 221,276.3 287.7,288.8 288.5,276.9 			"/>
		</g>
	</g>
</g>
</svg>
